<?xml version="1.0" encoding="utf-8" standalone="no"?>
<!DOCTYPE svg PUBLIC "-//W3C//DTD SVG 1.1//EN"
  "http://www.w3.org/Graphics/SVG/1.1/DTD/svg11.dtd">
<svg xmlns:xlink="http://www.w3.org/1999/xlink" width="510.209531pt" height="350.514125pt" viewBox="0 0 510.209531 350.514125" xmlns="http://www.w3.org/2000/svg" version="1.1">
 <metadata>
  <rdf:RDF xmlns:dc="http://purl.org/dc/elements/1.1/" xmlns:cc="http://creativecommons.org/ns#" xmlns:rdf="http://www.w3.org/1999/02/22-rdf-syntax-ns#">
   <cc:Work>
    <dc:type rdf:resource="http://purl.org/dc/dcmitype/StillImage"/>
    <dc:date>2025-12-18T15:53:33.726174</dc:date>
    <dc:format>image/svg+xml</dc:format>
    <dc:creator>
     <cc:Agent>
      <dc:title>Matplotlib v3.9.2, https://matplotlib.org/</dc:title>
     </cc:Agent>
    </dc:creator>
   </cc:Work>
  </rdf:RDF>
 </metadata>
 <defs>
  <style type="text/css">*{stroke-linejoin: round; stroke-linecap: butt}</style>
 </defs>
 <g id="figure_1">
  <g id="patch_1">
   <path d="M 0 350.514125 
L 510.209531 350.514125 
L 510.209531 0 
L 0 0 
z
" style="fill: #ffffff"/>
  </g>
  <g id="axes_1">
   <g id="patch_2">
    <path d="M 76.544766 301.076 
L 433.664766 301.076 
L 433.664766 34.964 
L 76.544766 34.964 
z
" style="fill: #ffffff"/>
   </g>
   <g id="matplotlib.axis_1">
    <g id="xtick_1">
     <g id="line2d_1">
      <path d="M 102.998099 301.076 
L 102.998099 34.964 
" clip-path="url(#p1d5f9882f0)" style="fill: none; stroke: #b0b0b0; stroke-width: 0.8; stroke-linecap: square"/>
     </g>
     <g id="line2d_2">
      <defs>
       <path id="m49ad844cd9" d="M 0 0 
L 0 3.5 
" style="stroke: #000000; stroke-width: 0.8"/>
      </defs>
      <g>
       <use xlink:href="#m49ad844cd9" x="102.998099" y="301.076" style="stroke: #000000; stroke-width: 0.8"/>
      </g>
     </g>
     <g id="text_1">
      <!-- 0 -->
      <g transform="translate(99.816849 315.674437) scale(0.1 -0.1)">
       <defs>
        <path id="DejaVuSans-30" d="M 2034 4250 
Q 1547 4250 1301 3770 
Q 1056 3291 1056 2328 
Q 1056 1369 1301 889 
Q 1547 409 2034 409 
Q 2525 409 2770 889 
Q 3016 1369 3016 2328 
Q 3016 3291 2770 3770 
Q 2525 4250 2034 4250 
z
M 2034 4750 
Q 2819 4750 3233 4129 
Q 3647 3509 3647 2328 
Q 3647 1150 3233 529 
Q 2819 -91 2034 -91 
Q 1250 -91 836 529 
Q 422 1150 422 2328 
Q 422 3509 836 4129 
Q 1250 4750 2034 4750 
z
" transform="scale(0.015625)"/>
       </defs>
       <use xlink:href="#DejaVuSans-30"/>
      </g>
     </g>
    </g>
    <g id="xtick_2">
     <g id="line2d_3">
      <path d="M 169.131432 301.076 
L 169.131432 34.964 
" clip-path="url(#p1d5f9882f0)" style="fill: none; stroke: #b0b0b0; stroke-width: 0.8; stroke-linecap: square"/>
     </g>
     <g id="line2d_4">
      <g>
       <use xlink:href="#m49ad844cd9" x="169.131432" y="301.076" style="stroke: #000000; stroke-width: 0.8"/>
      </g>
     </g>
     <g id="text_2">
      <!-- 5 -->
      <g transform="translate(165.950182 315.674437) scale(0.1 -0.1)">
       <defs>
        <path id="DejaVuSans-35" d="M 691 4666 
L 3169 4666 
L 3169 4134 
L 1269 4134 
L 1269 2991 
Q 1406 3038 1543 3061 
Q 1681 3084 1819 3084 
Q 2600 3084 3056 2656 
Q 3513 2228 3513 1497 
Q 3513 744 3044 326 
Q 2575 -91 1722 -91 
Q 1428 -91 1123 -41 
Q 819 9 494 109 
L 494 744 
Q 775 591 1075 516 
Q 1375 441 1709 441 
Q 2250 441 2565 725 
Q 2881 1009 2881 1497 
Q 2881 1984 2565 2268 
Q 2250 2553 1709 2553 
Q 1456 2553 1204 2497 
Q 953 2441 691 2322 
L 691 4666 
z
" transform="scale(0.015625)"/>
       </defs>
       <use xlink:href="#DejaVuSans-35"/>
      </g>
     </g>
    </g>
    <g id="xtick_3">
     <g id="line2d_5">
      <path d="M 235.264766 301.076 
L 235.264766 34.964 
" clip-path="url(#p1d5f9882f0)" style="fill: none; stroke: #b0b0b0; stroke-width: 0.8; stroke-linecap: square"/>
     </g>
     <g id="line2d_6">
      <g>
       <use xlink:href="#m49ad844cd9" x="235.264766" y="301.076" style="stroke: #000000; stroke-width: 0.8"/>
      </g>
     </g>
     <g id="text_3">
      <!-- 10 -->
      <g transform="translate(228.902266 315.674437) scale(0.1 -0.1)">
       <defs>
        <path id="DejaVuSans-31" d="M 794 531 
L 1825 531 
L 1825 4091 
L 703 3866 
L 703 4441 
L 1819 4666 
L 2450 4666 
L 2450 531 
L 3481 531 
L 3481 0 
L 794 0 
L 794 531 
z
" transform="scale(0.015625)"/>
       </defs>
       <use xlink:href="#DejaVuSans-31"/>
       <use xlink:href="#DejaVuSans-30" x="63.623047"/>
      </g>
     </g>
    </g>
    <g id="xtick_4">
     <g id="line2d_7">
      <path d="M 301.398099 301.076 
L 301.398099 34.964 
" clip-path="url(#p1d5f9882f0)" style="fill: none; stroke: #b0b0b0; stroke-width: 0.8; stroke-linecap: square"/>
     </g>
     <g id="line2d_8">
      <g>
       <use xlink:href="#m49ad844cd9" x="301.398099" y="301.076" style="stroke: #000000; stroke-width: 0.8"/>
      </g>
     </g>
     <g id="text_4">
      <!-- 15 -->
      <g transform="translate(295.035599 315.674437) scale(0.1 -0.1)">
       <use xlink:href="#DejaVuSans-31"/>
       <use xlink:href="#DejaVuSans-35" x="63.623047"/>
      </g>
     </g>
    </g>
    <g id="xtick_5">
     <g id="line2d_9">
      <path d="M 367.531432 301.076 
L 367.531432 34.964 
" clip-path="url(#p1d5f9882f0)" style="fill: none; stroke: #b0b0b0; stroke-width: 0.8; stroke-linecap: square"/>
     </g>
     <g id="line2d_10">
      <g>
       <use xlink:href="#m49ad844cd9" x="367.531432" y="301.076" style="stroke: #000000; stroke-width: 0.8"/>
      </g>
     </g>
     <g id="text_5">
      <!-- 20 -->
      <g transform="translate(361.168932 315.674437) scale(0.1 -0.1)">
       <defs>
        <path id="DejaVuSans-32" d="M 1228 531 
L 3431 531 
L 3431 0 
L 469 0 
L 469 531 
Q 828 903 1448 1529 
Q 2069 2156 2228 2338 
Q 2531 2678 2651 2914 
Q 2772 3150 2772 3378 
Q 2772 3750 2511 3984 
Q 2250 4219 1831 4219 
Q 1534 4219 1204 4116 
Q 875 4013 500 3803 
L 500 4441 
Q 881 4594 1212 4672 
Q 1544 4750 1819 4750 
Q 2544 4750 2975 4387 
Q 3406 4025 3406 3419 
Q 3406 3131 3298 2873 
Q 3191 2616 2906 2266 
Q 2828 2175 2409 1742 
Q 1991 1309 1228 531 
z
" transform="scale(0.015625)"/>
       </defs>
       <use xlink:href="#DejaVuSans-32"/>
       <use xlink:href="#DejaVuSans-30" x="63.623047"/>
      </g>
     </g>
    </g>
    <g id="xtick_6">
     <g id="line2d_11">
      <path d="M 433.664766 301.076 
L 433.664766 34.964 
" clip-path="url(#p1d5f9882f0)" style="fill: none; stroke: #b0b0b0; stroke-width: 0.8; stroke-linecap: square"/>
     </g>
     <g id="line2d_12">
      <g>
       <use xlink:href="#m49ad844cd9" x="433.664766" y="301.076" style="stroke: #000000; stroke-width: 0.8"/>
      </g>
     </g>
     <g id="text_6">
      <!-- 25 -->
      <g transform="translate(427.302266 315.674437) scale(0.1 -0.1)">
       <use xlink:href="#DejaVuSans-32"/>
       <use xlink:href="#DejaVuSans-35" x="63.623047"/>
      </g>
     </g>
    </g>
    <g id="text_7">
     <!-- Cumulative Org. 1 Biomass Flux ($\frac{g_1}{g_T \cdot hr}$) -->
     <g transform="translate(120.214766 335.474125) scale(0.14 -0.14)">
      <defs>
       <path id="DejaVuSans-43" d="M 4122 4306 
L 4122 3641 
Q 3803 3938 3442 4084 
Q 3081 4231 2675 4231 
Q 1875 4231 1450 3742 
Q 1025 3253 1025 2328 
Q 1025 1406 1450 917 
Q 1875 428 2675 428 
Q 3081 428 3442 575 
Q 3803 722 4122 1019 
L 4122 359 
Q 3791 134 3420 21 
Q 3050 -91 2638 -91 
Q 1578 -91 968 557 
Q 359 1206 359 2328 
Q 359 3453 968 4101 
Q 1578 4750 2638 4750 
Q 3056 4750 3426 4639 
Q 3797 4528 4122 4306 
z
" transform="scale(0.015625)"/>
       <path id="DejaVuSans-75" d="M 544 1381 
L 544 3500 
L 1119 3500 
L 1119 1403 
Q 1119 906 1312 657 
Q 1506 409 1894 409 
Q 2359 409 2629 706 
Q 2900 1003 2900 1516 
L 2900 3500 
L 3475 3500 
L 3475 0 
L 2900 0 
L 2900 538 
Q 2691 219 2414 64 
Q 2138 -91 1772 -91 
Q 1169 -91 856 284 
Q 544 659 544 1381 
z
M 1991 3584 
L 1991 3584 
z
" transform="scale(0.015625)"/>
       <path id="DejaVuSans-6d" d="M 3328 2828 
Q 3544 3216 3844 3400 
Q 4144 3584 4550 3584 
Q 5097 3584 5394 3201 
Q 5691 2819 5691 2113 
L 5691 0 
L 5113 0 
L 5113 2094 
Q 5113 2597 4934 2840 
Q 4756 3084 4391 3084 
Q 3944 3084 3684 2787 
Q 3425 2491 3425 1978 
L 3425 0 
L 2847 0 
L 2847 2094 
Q 2847 2600 2669 2842 
Q 2491 3084 2119 3084 
Q 1678 3084 1418 2786 
Q 1159 2488 1159 1978 
L 1159 0 
L 581 0 
L 581 3500 
L 1159 3500 
L 1159 2956 
Q 1356 3278 1631 3431 
Q 1906 3584 2284 3584 
Q 2666 3584 2933 3390 
Q 3200 3197 3328 2828 
z
" transform="scale(0.015625)"/>
       <path id="DejaVuSans-6c" d="M 603 4863 
L 1178 4863 
L 1178 0 
L 603 0 
L 603 4863 
z
" transform="scale(0.015625)"/>
       <path id="DejaVuSans-61" d="M 2194 1759 
Q 1497 1759 1228 1600 
Q 959 1441 959 1056 
Q 959 750 1161 570 
Q 1363 391 1709 391 
Q 2188 391 2477 730 
Q 2766 1069 2766 1631 
L 2766 1759 
L 2194 1759 
z
M 3341 1997 
L 3341 0 
L 2766 0 
L 2766 531 
Q 2569 213 2275 61 
Q 1981 -91 1556 -91 
Q 1019 -91 701 211 
Q 384 513 384 1019 
Q 384 1609 779 1909 
Q 1175 2209 1959 2209 
L 2766 2209 
L 2766 2266 
Q 2766 2663 2505 2880 
Q 2244 3097 1772 3097 
Q 1472 3097 1187 3025 
Q 903 2953 641 2809 
L 641 3341 
Q 956 3463 1253 3523 
Q 1550 3584 1831 3584 
Q 2591 3584 2966 3190 
Q 3341 2797 3341 1997 
z
" transform="scale(0.015625)"/>
       <path id="DejaVuSans-74" d="M 1172 4494 
L 1172 3500 
L 2356 3500 
L 2356 3053 
L 1172 3053 
L 1172 1153 
Q 1172 725 1289 603 
Q 1406 481 1766 481 
L 2356 481 
L 2356 0 
L 1766 0 
Q 1100 0 847 248 
Q 594 497 594 1153 
L 594 3053 
L 172 3053 
L 172 3500 
L 594 3500 
L 594 4494 
L 1172 4494 
z
" transform="scale(0.015625)"/>
       <path id="DejaVuSans-69" d="M 603 3500 
L 1178 3500 
L 1178 0 
L 603 0 
L 603 3500 
z
M 603 4863 
L 1178 4863 
L 1178 4134 
L 603 4134 
L 603 4863 
z
" transform="scale(0.015625)"/>
       <path id="DejaVuSans-76" d="M 191 3500 
L 800 3500 
L 1894 563 
L 2988 3500 
L 3597 3500 
L 2284 0 
L 1503 0 
L 191 3500 
z
" transform="scale(0.015625)"/>
       <path id="DejaVuSans-65" d="M 3597 1894 
L 3597 1613 
L 953 1613 
Q 991 1019 1311 708 
Q 1631 397 2203 397 
Q 2534 397 2845 478 
Q 3156 559 3463 722 
L 3463 178 
Q 3153 47 2828 -22 
Q 2503 -91 2169 -91 
Q 1331 -91 842 396 
Q 353 884 353 1716 
Q 353 2575 817 3079 
Q 1281 3584 2069 3584 
Q 2775 3584 3186 3129 
Q 3597 2675 3597 1894 
z
M 3022 2063 
Q 3016 2534 2758 2815 
Q 2500 3097 2075 3097 
Q 1594 3097 1305 2825 
Q 1016 2553 972 2059 
L 3022 2063 
z
" transform="scale(0.015625)"/>
       <path id="DejaVuSans-20" transform="scale(0.015625)"/>
       <path id="DejaVuSans-4f" d="M 2522 4238 
Q 1834 4238 1429 3725 
Q 1025 3213 1025 2328 
Q 1025 1447 1429 934 
Q 1834 422 2522 422 
Q 3209 422 3611 934 
Q 4013 1447 4013 2328 
Q 4013 3213 3611 3725 
Q 3209 4238 2522 4238 
z
M 2522 4750 
Q 3503 4750 4090 4092 
Q 4678 3434 4678 2328 
Q 4678 1225 4090 567 
Q 3503 -91 2522 -91 
Q 1538 -91 948 565 
Q 359 1222 359 2328 
Q 359 3434 948 4092 
Q 1538 4750 2522 4750 
z
" transform="scale(0.015625)"/>
       <path id="DejaVuSans-72" d="M 2631 2963 
Q 2534 3019 2420 3045 
Q 2306 3072 2169 3072 
Q 1681 3072 1420 2755 
Q 1159 2438 1159 1844 
L 1159 0 
L 581 0 
L 581 3500 
L 1159 3500 
L 1159 2956 
Q 1341 3275 1631 3429 
Q 1922 3584 2338 3584 
Q 2397 3584 2469 3576 
Q 2541 3569 2628 3553 
L 2631 2963 
z
" transform="scale(0.015625)"/>
       <path id="DejaVuSans-67" d="M 2906 1791 
Q 2906 2416 2648 2759 
Q 2391 3103 1925 3103 
Q 1463 3103 1205 2759 
Q 947 2416 947 1791 
Q 947 1169 1205 825 
Q 1463 481 1925 481 
Q 2391 481 2648 825 
Q 2906 1169 2906 1791 
z
M 3481 434 
Q 3481 -459 3084 -895 
Q 2688 -1331 1869 -1331 
Q 1566 -1331 1297 -1286 
Q 1028 -1241 775 -1147 
L 775 -588 
Q 1028 -725 1275 -790 
Q 1522 -856 1778 -856 
Q 2344 -856 2625 -561 
Q 2906 -266 2906 331 
L 2906 616 
Q 2728 306 2450 153 
Q 2172 0 1784 0 
Q 1141 0 747 490 
Q 353 981 353 1791 
Q 353 2603 747 3093 
Q 1141 3584 1784 3584 
Q 2172 3584 2450 3431 
Q 2728 3278 2906 2969 
L 2906 3500 
L 3481 3500 
L 3481 434 
z
" transform="scale(0.015625)"/>
       <path id="DejaVuSans-2e" d="M 684 794 
L 1344 794 
L 1344 0 
L 684 0 
L 684 794 
z
" transform="scale(0.015625)"/>
       <path id="DejaVuSans-42" d="M 1259 2228 
L 1259 519 
L 2272 519 
Q 2781 519 3026 730 
Q 3272 941 3272 1375 
Q 3272 1813 3026 2020 
Q 2781 2228 2272 2228 
L 1259 2228 
z
M 1259 4147 
L 1259 2741 
L 2194 2741 
Q 2656 2741 2882 2914 
Q 3109 3088 3109 3444 
Q 3109 3797 2882 3972 
Q 2656 4147 2194 4147 
L 1259 4147 
z
M 628 4666 
L 2241 4666 
Q 2963 4666 3353 4366 
Q 3744 4066 3744 3513 
Q 3744 3084 3544 2831 
Q 3344 2578 2956 2516 
Q 3422 2416 3680 2098 
Q 3938 1781 3938 1306 
Q 3938 681 3513 340 
Q 3088 0 2303 0 
L 628 0 
L 628 4666 
z
" transform="scale(0.015625)"/>
       <path id="DejaVuSans-6f" d="M 1959 3097 
Q 1497 3097 1228 2736 
Q 959 2375 959 1747 
Q 959 1119 1226 758 
Q 1494 397 1959 397 
Q 2419 397 2687 759 
Q 2956 1122 2956 1747 
Q 2956 2369 2687 2733 
Q 2419 3097 1959 3097 
z
M 1959 3584 
Q 2709 3584 3137 3096 
Q 3566 2609 3566 1747 
Q 3566 888 3137 398 
Q 2709 -91 1959 -91 
Q 1206 -91 779 398 
Q 353 888 353 1747 
Q 353 2609 779 3096 
Q 1206 3584 1959 3584 
z
" transform="scale(0.015625)"/>
       <path id="DejaVuSans-73" d="M 2834 3397 
L 2834 2853 
Q 2591 2978 2328 3040 
Q 2066 3103 1784 3103 
Q 1356 3103 1142 2972 
Q 928 2841 928 2578 
Q 928 2378 1081 2264 
Q 1234 2150 1697 2047 
L 1894 2003 
Q 2506 1872 2764 1633 
Q 3022 1394 3022 966 
Q 3022 478 2636 193 
Q 2250 -91 1575 -91 
Q 1294 -91 989 -36 
Q 684 19 347 128 
L 347 722 
Q 666 556 975 473 
Q 1284 391 1588 391 
Q 1994 391 2212 530 
Q 2431 669 2431 922 
Q 2431 1156 2273 1281 
Q 2116 1406 1581 1522 
L 1381 1569 
Q 847 1681 609 1914 
Q 372 2147 372 2553 
Q 372 3047 722 3315 
Q 1072 3584 1716 3584 
Q 2034 3584 2315 3537 
Q 2597 3491 2834 3397 
z
" transform="scale(0.015625)"/>
       <path id="DejaVuSans-46" d="M 628 4666 
L 3309 4666 
L 3309 4134 
L 1259 4134 
L 1259 2759 
L 3109 2759 
L 3109 2228 
L 1259 2228 
L 1259 0 
L 628 0 
L 628 4666 
z
" transform="scale(0.015625)"/>
       <path id="DejaVuSans-78" d="M 3513 3500 
L 2247 1797 
L 3578 0 
L 2900 0 
L 1881 1375 
L 863 0 
L 184 0 
L 1544 1831 
L 300 3500 
L 978 3500 
L 1906 2253 
L 2834 3500 
L 3513 3500 
z
" transform="scale(0.015625)"/>
       <path id="DejaVuSans-28" d="M 1984 4856 
Q 1566 4138 1362 3434 
Q 1159 2731 1159 2009 
Q 1159 1288 1364 580 
Q 1569 -128 1984 -844 
L 1484 -844 
Q 1016 -109 783 600 
Q 550 1309 550 2009 
Q 550 2706 781 3412 
Q 1013 4119 1484 4856 
L 1984 4856 
z
" transform="scale(0.015625)"/>
       <path id="DejaVuSans-Oblique-67" d="M 3816 3500 
L 3219 434 
Q 3047 -456 2561 -893 
Q 2075 -1331 1253 -1331 
Q 950 -1331 690 -1286 
Q 431 -1241 206 -1147 
L 313 -588 
Q 525 -725 762 -790 
Q 1000 -856 1269 -856 
Q 1816 -856 2167 -557 
Q 2519 -259 2631 300 
L 2681 563 
Q 2441 288 2122 144 
Q 1803 0 1434 0 
Q 903 0 598 351 
Q 294 703 294 1319 
Q 294 1803 478 2267 
Q 663 2731 997 3091 
Q 1219 3328 1514 3456 
Q 1809 3584 2131 3584 
Q 2484 3584 2746 3420 
Q 3009 3256 3138 2956 
L 3238 3500 
L 3816 3500 
z
M 2950 2216 
Q 2950 2641 2750 2872 
Q 2550 3103 2181 3103 
Q 1953 3103 1747 3012 
Q 1541 2922 1394 2759 
Q 1156 2491 1023 2127 
Q 891 1763 891 1375 
Q 891 944 1092 712 
Q 1294 481 1672 481 
Q 2219 481 2584 976 
Q 2950 1472 2950 2216 
z
" transform="scale(0.015625)"/>
       <path id="DejaVuSans-Oblique-54" d="M 378 4666 
L 4325 4666 
L 4225 4134 
L 2559 4134 
L 1759 0 
L 1125 0 
L 1925 4134 
L 275 4134 
L 378 4666 
z
" transform="scale(0.015625)"/>
       <path id="DejaVuSans-22c5" d="M 684 2619 
L 1344 2619 
L 1344 1825 
L 684 1825 
L 684 2619 
z
" transform="scale(0.015625)"/>
       <path id="DejaVuSans-Oblique-68" d="M 3566 2113 
L 3156 0 
L 2578 0 
L 2988 2091 
Q 3016 2238 3031 2350 
Q 3047 2463 3047 2528 
Q 3047 2791 2881 2937 
Q 2716 3084 2419 3084 
Q 1956 3084 1617 2771 
Q 1278 2459 1178 1941 
L 800 0 
L 225 0 
L 1172 4863 
L 1747 4863 
L 1375 2950 
Q 1594 3244 1934 3414 
Q 2275 3584 2650 3584 
Q 3113 3584 3367 3334 
Q 3622 3084 3622 2631 
Q 3622 2519 3608 2391 
Q 3594 2263 3566 2113 
z
" transform="scale(0.015625)"/>
       <path id="DejaVuSans-Oblique-72" d="M 2853 2969 
Q 2766 3016 2653 3041 
Q 2541 3066 2413 3066 
Q 1953 3066 1609 2717 
Q 1266 2369 1153 1784 
L 800 0 
L 225 0 
L 909 3500 
L 1484 3500 
L 1375 2956 
Q 1603 3259 1920 3421 
Q 2238 3584 2597 3584 
Q 2691 3584 2781 3573 
Q 2872 3563 2963 3538 
L 2853 2969 
z
" transform="scale(0.015625)"/>
       <path id="DejaVuSans-29" d="M 513 4856 
L 1013 4856 
Q 1481 4119 1714 3412 
Q 1947 2706 1947 2009 
Q 1947 1309 1714 600 
Q 1481 -109 1013 -844 
L 513 -844 
Q 928 -128 1133 580 
Q 1338 1288 1338 2009 
Q 1338 2731 1133 3434 
Q 928 4138 513 4856 
z
" transform="scale(0.015625)"/>
      </defs>
      <use xlink:href="#DejaVuSans-43" transform="translate(0 0.445312)"/>
      <use xlink:href="#DejaVuSans-75" transform="translate(69.824219 0.445312)"/>
      <use xlink:href="#DejaVuSans-6d" transform="translate(133.203125 0.445312)"/>
      <use xlink:href="#DejaVuSans-75" transform="translate(230.615234 0.445312)"/>
      <use xlink:href="#DejaVuSans-6c" transform="translate(293.994141 0.445312)"/>
      <use xlink:href="#DejaVuSans-61" transform="translate(321.777344 0.445312)"/>
      <use xlink:href="#DejaVuSans-74" transform="translate(383.056641 0.445312)"/>
      <use xlink:href="#DejaVuSans-69" transform="translate(422.265625 0.445312)"/>
      <use xlink:href="#DejaVuSans-76" transform="translate(450.048828 0.445312)"/>
      <use xlink:href="#DejaVuSans-65" transform="translate(509.228516 0.445312)"/>
      <use xlink:href="#DejaVuSans-20" transform="translate(570.751953 0.445312)"/>
      <use xlink:href="#DejaVuSans-4f" transform="translate(602.539062 0.445312)"/>
      <use xlink:href="#DejaVuSans-72" transform="translate(681.25 0.445312)"/>
      <use xlink:href="#DejaVuSans-67" transform="translate(722.363281 0.445312)"/>
      <use xlink:href="#DejaVuSans-2e" transform="translate(785.839844 0.445312)"/>
      <use xlink:href="#DejaVuSans-20" transform="translate(817.626953 0.445312)"/>
      <use xlink:href="#DejaVuSans-31" transform="translate(849.414062 0.445312)"/>
      <use xlink:href="#DejaVuSans-20" transform="translate(913.037109 0.445312)"/>
      <use xlink:href="#DejaVuSans-42" transform="translate(944.824219 0.445312)"/>
      <use xlink:href="#DejaVuSans-69" transform="translate(1013.427734 0.445312)"/>
      <use xlink:href="#DejaVuSans-6f" transform="translate(1041.210938 0.445312)"/>
      <use xlink:href="#DejaVuSans-6d" transform="translate(1102.392578 0.445312)"/>
      <use xlink:href="#DejaVuSans-61" transform="translate(1199.804688 0.445312)"/>
      <use xlink:href="#DejaVuSans-73" transform="translate(1261.083984 0.445312)"/>
      <use xlink:href="#DejaVuSans-73" transform="translate(1313.183594 0.445312)"/>
      <use xlink:href="#DejaVuSans-20" transform="translate(1365.283203 0.445312)"/>
      <use xlink:href="#DejaVuSans-46" transform="translate(1397.070312 0.445312)"/>
      <use xlink:href="#DejaVuSans-6c" transform="translate(1454.589844 0.445312)"/>
      <use xlink:href="#DejaVuSans-75" transform="translate(1482.373047 0.445312)"/>
      <use xlink:href="#DejaVuSans-78" transform="translate(1545.751953 0.445312)"/>
      <use xlink:href="#DejaVuSans-20" transform="translate(1604.931641 0.445312)"/>
      <use xlink:href="#DejaVuSans-28" transform="translate(1636.71875 0.445312)"/>
      <use xlink:href="#DejaVuSans-Oblique-67" transform="translate(1736.732422 58.8) scale(0.7)"/>
      <use xlink:href="#DejaVuSans-31" transform="translate(1781.166016 47.315625) scale(0.49)"/>
      <use xlink:href="#DejaVuSans-Oblique-67" transform="translate(1675.732422 -40.196875) scale(0.7)"/>
      <use xlink:href="#DejaVuSans-Oblique-54" transform="translate(1720.166016 -51.68125) scale(0.49)"/>
      <use xlink:href="#DejaVuSans-22c5" transform="translate(1765.648926 -40.196875) scale(0.7)"/>
      <use xlink:href="#DejaVuSans-Oblique-68" transform="translate(1801.537598 -40.196875) scale(0.7)"/>
      <use xlink:href="#DejaVuSans-Oblique-72" transform="translate(1845.902832 -40.196875) scale(0.7)"/>
      <use xlink:href="#DejaVuSans-29" transform="translate(1887.182129 0.445312)"/>
      <path d="M 1675.732422 19.242188 
L 1675.732422 25.492188 
L 1874.682129 25.492188 
L 1874.682129 19.242188 
L 1675.732422 19.242188 
z
"/>
     </g>
    </g>
   </g>
   <g id="matplotlib.axis_2">
    <g id="ytick_1">
     <g id="line2d_13">
      <path d="M 76.544766 281.364 
L 433.664766 281.364 
" clip-path="url(#p1d5f9882f0)" style="fill: none; stroke: #b0b0b0; stroke-width: 0.8; stroke-linecap: square"/>
     </g>
     <g id="line2d_14">
      <defs>
       <path id="mbe39bf43d0" d="M 0 0 
L -3.5 0 
" style="stroke: #000000; stroke-width: 0.8"/>
      </defs>
      <g>
       <use xlink:href="#mbe39bf43d0" x="76.544766" y="281.364" style="stroke: #000000; stroke-width: 0.8"/>
      </g>
     </g>
     <g id="text_8">
      <!-- 0 -->
      <g transform="translate(63.182266 285.163219) scale(0.1 -0.1)">
       <use xlink:href="#DejaVuSans-30"/>
      </g>
     </g>
    </g>
    <g id="ytick_2">
     <g id="line2d_15">
      <path d="M 76.544766 232.084 
L 433.664766 232.084 
" clip-path="url(#p1d5f9882f0)" style="fill: none; stroke: #b0b0b0; stroke-width: 0.8; stroke-linecap: square"/>
     </g>
     <g id="line2d_16">
      <g>
       <use xlink:href="#mbe39bf43d0" x="76.544766" y="232.084" style="stroke: #000000; stroke-width: 0.8"/>
      </g>
     </g>
     <g id="text_9">
      <!-- 5 -->
      <g transform="translate(63.182266 235.883219) scale(0.1 -0.1)">
       <use xlink:href="#DejaVuSans-35"/>
      </g>
     </g>
    </g>
    <g id="ytick_3">
     <g id="line2d_17">
      <path d="M 76.544766 182.804 
L 433.664766 182.804 
" clip-path="url(#p1d5f9882f0)" style="fill: none; stroke: #b0b0b0; stroke-width: 0.8; stroke-linecap: square"/>
     </g>
     <g id="line2d_18">
      <g>
       <use xlink:href="#mbe39bf43d0" x="76.544766" y="182.804" style="stroke: #000000; stroke-width: 0.8"/>
      </g>
     </g>
     <g id="text_10">
      <!-- 10 -->
      <g transform="translate(56.819766 186.603219) scale(0.1 -0.1)">
       <use xlink:href="#DejaVuSans-31"/>
       <use xlink:href="#DejaVuSans-30" x="63.623047"/>
      </g>
     </g>
    </g>
    <g id="ytick_4">
     <g id="line2d_19">
      <path d="M 76.544766 133.524 
L 433.664766 133.524 
" clip-path="url(#p1d5f9882f0)" style="fill: none; stroke: #b0b0b0; stroke-width: 0.8; stroke-linecap: square"/>
     </g>
     <g id="line2d_20">
      <g>
       <use xlink:href="#mbe39bf43d0" x="76.544766" y="133.524" style="stroke: #000000; stroke-width: 0.8"/>
      </g>
     </g>
     <g id="text_11">
      <!-- 15 -->
      <g transform="translate(56.819766 137.323219) scale(0.1 -0.1)">
       <use xlink:href="#DejaVuSans-31"/>
       <use xlink:href="#DejaVuSans-35" x="63.623047"/>
      </g>
     </g>
    </g>
    <g id="ytick_5">
     <g id="line2d_21">
      <path d="M 76.544766 84.244 
L 433.664766 84.244 
" clip-path="url(#p1d5f9882f0)" style="fill: none; stroke: #b0b0b0; stroke-width: 0.8; stroke-linecap: square"/>
     </g>
     <g id="line2d_22">
      <g>
       <use xlink:href="#mbe39bf43d0" x="76.544766" y="84.244" style="stroke: #000000; stroke-width: 0.8"/>
      </g>
     </g>
     <g id="text_12">
      <!-- 20 -->
      <g transform="translate(56.819766 88.043219) scale(0.1 -0.1)">
       <use xlink:href="#DejaVuSans-32"/>
       <use xlink:href="#DejaVuSans-30" x="63.623047"/>
      </g>
     </g>
    </g>
    <g id="ytick_6">
     <g id="line2d_23">
      <path d="M 76.544766 34.964 
L 433.664766 34.964 
" clip-path="url(#p1d5f9882f0)" style="fill: none; stroke: #b0b0b0; stroke-width: 0.8; stroke-linecap: square"/>
     </g>
     <g id="line2d_24">
      <g>
       <use xlink:href="#mbe39bf43d0" x="76.544766" y="34.964" style="stroke: #000000; stroke-width: 0.8"/>
      </g>
     </g>
     <g id="text_13">
      <!-- 25 -->
      <g transform="translate(56.819766 38.763219) scale(0.1 -0.1)">
       <use xlink:href="#DejaVuSans-32"/>
       <use xlink:href="#DejaVuSans-35" x="63.623047"/>
      </g>
     </g>
    </g>
    <g id="text_14">
     <!-- Cumulative Org. 2 Biomass Flux ($\frac{g_2}{g_T \cdot hr}$) -->
     <g transform="translate(44.979766 302.91) rotate(-90) scale(0.14 -0.14)">
      <use xlink:href="#DejaVuSans-43" transform="translate(0 0.445312)"/>
      <use xlink:href="#DejaVuSans-75" transform="translate(69.824219 0.445312)"/>
      <use xlink:href="#DejaVuSans-6d" transform="translate(133.203125 0.445312)"/>
      <use xlink:href="#DejaVuSans-75" transform="translate(230.615234 0.445312)"/>
      <use xlink:href="#DejaVuSans-6c" transform="translate(293.994141 0.445312)"/>
      <use xlink:href="#DejaVuSans-61" transform="translate(321.777344 0.445312)"/>
      <use xlink:href="#DejaVuSans-74" transform="translate(383.056641 0.445312)"/>
      <use xlink:href="#DejaVuSans-69" transform="translate(422.265625 0.445312)"/>
      <use xlink:href="#DejaVuSans-76" transform="translate(450.048828 0.445312)"/>
      <use xlink:href="#DejaVuSans-65" transform="translate(509.228516 0.445312)"/>
      <use xlink:href="#DejaVuSans-20" transform="translate(570.751953 0.445312)"/>
      <use xlink:href="#DejaVuSans-4f" transform="translate(602.539062 0.445312)"/>
      <use xlink:href="#DejaVuSans-72" transform="translate(681.25 0.445312)"/>
      <use xlink:href="#DejaVuSans-67" transform="translate(722.363281 0.445312)"/>
      <use xlink:href="#DejaVuSans-2e" transform="translate(785.839844 0.445312)"/>
      <use xlink:href="#DejaVuSans-20" transform="translate(817.626953 0.445312)"/>
      <use xlink:href="#DejaVuSans-32" transform="translate(849.414062 0.445312)"/>
      <use xlink:href="#DejaVuSans-20" transform="translate(913.037109 0.445312)"/>
      <use xlink:href="#DejaVuSans-42" transform="translate(944.824219 0.445312)"/>
      <use xlink:href="#DejaVuSans-69" transform="translate(1013.427734 0.445312)"/>
      <use xlink:href="#DejaVuSans-6f" transform="translate(1041.210938 0.445312)"/>
      <use xlink:href="#DejaVuSans-6d" transform="translate(1102.392578 0.445312)"/>
      <use xlink:href="#DejaVuSans-61" transform="translate(1199.804688 0.445312)"/>
      <use xlink:href="#DejaVuSans-73" transform="translate(1261.083984 0.445312)"/>
      <use xlink:href="#DejaVuSans-73" transform="translate(1313.183594 0.445312)"/>
      <use xlink:href="#DejaVuSans-20" transform="translate(1365.283203 0.445312)"/>
      <use xlink:href="#DejaVuSans-46" transform="translate(1397.070312 0.445312)"/>
      <use xlink:href="#DejaVuSans-6c" transform="translate(1454.589844 0.445312)"/>
      <use xlink:href="#DejaVuSans-75" transform="translate(1482.373047 0.445312)"/>
      <use xlink:href="#DejaVuSans-78" transform="translate(1545.751953 0.445312)"/>
      <use xlink:href="#DejaVuSans-20" transform="translate(1604.931641 0.445312)"/>
      <use xlink:href="#DejaVuSans-28" transform="translate(1636.71875 0.445312)"/>
      <use xlink:href="#DejaVuSans-Oblique-67" transform="translate(1736.732422 58.8) scale(0.7)"/>
      <use xlink:href="#DejaVuSans-32" transform="translate(1781.166016 47.315625) scale(0.49)"/>
      <use xlink:href="#DejaVuSans-Oblique-67" transform="translate(1675.732422 -40.196875) scale(0.7)"/>
      <use xlink:href="#DejaVuSans-Oblique-54" transform="translate(1720.166016 -51.68125) scale(0.49)"/>
      <use xlink:href="#DejaVuSans-22c5" transform="translate(1765.648926 -40.196875) scale(0.7)"/>
      <use xlink:href="#DejaVuSans-Oblique-68" transform="translate(1801.537598 -40.196875) scale(0.7)"/>
      <use xlink:href="#DejaVuSans-Oblique-72" transform="translate(1845.902832 -40.196875) scale(0.7)"/>
      <use xlink:href="#DejaVuSans-29" transform="translate(1887.182129 0.445312)"/>
      <path d="M 1675.732422 19.242188 
L 1675.732422 25.492188 
L 1874.682129 25.492188 
L 1874.682129 19.242188 
L 1675.732422 19.242188 
z
"/>
     </g>
    </g>
   </g>
   <g id="PathCollection_1">
    <path d="M 235.264766 290.226269 
C 237.615067 290.226269 239.869422 289.292485 241.531336 287.630571 
C 243.19325 285.968657 244.127035 283.714301 244.127035 281.364 
C 244.127035 279.013699 243.19325 276.759343 241.531336 275.097429 
C 239.869422 273.435515 237.615067 272.501731 235.264766 272.501731 
C 232.914464 272.501731 230.660109 273.435515 228.998195 275.097429 
C 227.336281 276.759343 226.402496 279.013699 226.402496 281.364 
C 226.402496 283.714301 227.336281 285.968657 228.998195 287.630571 
C 230.660109 289.292485 232.914464 290.226269 235.264766 290.226269 
z
" clip-path="url(#p1d5f9882f0)" style="fill: #0000ff; fill-opacity: 0.25; stroke: #0000ff; stroke-opacity: 0.25"/>
    <path d="M 235.264766 193.881837 
C 238.202642 193.881837 241.020587 192.714606 243.097979 190.637213 
C 245.175371 188.559821 246.342602 185.741877 246.342602 182.804 
C 246.342602 179.866123 245.175371 177.048179 243.097979 174.970787 
C 241.020587 172.893394 238.202642 171.726163 235.264766 171.726163 
C 232.326889 171.726163 229.508945 172.893394 227.431552 174.970787 
C 225.35416 177.048179 224.186929 179.866123 224.186929 182.804 
C 224.186929 185.741877 225.35416 188.559821 227.431552 190.637213 
C 229.508945 192.714606 232.326889 193.881837 235.264766 193.881837 
z
" clip-path="url(#p1d5f9882f0)" style="fill: #0000ff; fill-opacity: 0.25; stroke: #0000ff; stroke-opacity: 0.25"/>
    <path d="M 367.531432 196.097404 
C 371.056884 196.097404 374.438417 194.696727 376.931288 192.203856 
C 379.424159 189.710985 380.824836 186.329452 380.824836 182.804 
C 380.824836 179.278548 379.424159 175.897015 376.931288 173.404144 
C 374.438417 170.911273 371.056884 169.510596 367.531432 169.510596 
C 364.00598 169.510596 360.624447 170.911273 358.131576 173.404144 
C 355.638705 175.897015 354.238028 179.278548 354.238028 182.804 
C 354.238028 186.329452 355.638705 189.710985 358.131576 192.203856 
C 360.624447 194.696727 364.00598 196.097404 367.531432 196.097404 
z
" clip-path="url(#p1d5f9882f0)" style="fill: #0000ff; fill-opacity: 0.25; stroke: #0000ff; stroke-opacity: 0.25"/>
    <path d="M 367.531432 99.752971 
C 371.64446 99.752971 375.589582 98.118848 378.497931 95.210499 
C 381.40628 92.302149 383.040403 88.357027 383.040403 84.244 
C 383.040403 80.130973 381.40628 76.185851 378.497931 73.277501 
C 375.589582 70.369152 371.64446 68.735029 367.531432 68.735029 
C 363.418405 68.735029 359.473283 70.369152 356.564934 73.277501 
C 353.656584 76.185851 352.022461 80.130973 352.022461 84.244 
C 352.022461 88.357027 353.656584 92.302149 356.564934 95.210499 
C 359.473283 98.118848 363.418405 99.752971 367.531432 99.752971 
z
" clip-path="url(#p1d5f9882f0)" style="fill: #0000ff; fill-opacity: 0.25; stroke: #0000ff; stroke-opacity: 0.25"/>
    <path d="M 367.531432 101.968539 
C 372.232035 101.968539 376.740746 100.100969 380.064574 96.777141 
C 383.388402 93.453313 385.255971 88.944603 385.255971 84.244 
C 385.255971 79.543397 383.388402 75.034687 380.064574 71.710859 
C 376.740746 68.387031 372.232035 66.519461 367.531432 66.519461 
C 362.83083 66.519461 358.322119 68.387031 354.998291 71.710859 
C 351.674463 75.034687 349.806894 79.543397 349.806894 84.244 
C 349.806894 88.944603 351.674463 93.453313 354.998291 96.777141 
C 358.322119 100.100969 362.83083 101.968539 367.531432 101.968539 
z
" clip-path="url(#p1d5f9882f0)" style="fill: #0000ff; fill-opacity: 0.25; stroke: #0000ff; stroke-opacity: 0.25"/>
   </g>
   <g id="patch_3">
    <path d="M 76.544766 301.076 
L 76.544766 34.964 
" style="fill: none; stroke: #000000; stroke-width: 0.8; stroke-linejoin: miter; stroke-linecap: square"/>
   </g>
   <g id="patch_4">
    <path d="M 433.664766 301.076 
L 433.664766 34.964 
" style="fill: none; stroke: #000000; stroke-width: 0.8; stroke-linejoin: miter; stroke-linecap: square"/>
   </g>
   <g id="patch_5">
    <path d="M 76.544766 301.076 
L 433.664766 301.076 
" style="fill: none; stroke: #000000; stroke-width: 0.8; stroke-linejoin: miter; stroke-linecap: square"/>
   </g>
   <g id="patch_6">
    <path d="M 76.544766 34.964 
L 433.664766 34.964 
" style="fill: none; stroke: #000000; stroke-width: 0.8; stroke-linejoin: miter; stroke-linecap: square"/>
   </g>
   <g id="PathCollection_2">
    <defs>
     <path id="m32590086c1" d="M -1.666667 5 
L 1.666667 5 
L 1.666667 1.666667 
L 5 1.666667 
L 5 -1.666667 
L 1.666667 -1.666667 
L 1.666667 -5 
L -1.666667 -5 
L -1.666667 -1.666667 
L -5 -1.666667 
L -5 1.666667 
L -1.666667 1.666667 
z
" style="stroke: #ff0000"/>
    </defs>
    <g clip-path="url(#p1d5f9882f0)">
     <use xlink:href="#m32590086c1" x="235.264766" y="281.364" style="fill: #ff0000; stroke: #ff0000"/>
    </g>
   </g>
   <g id="line2d_25">
    <path d="M 367.531432 84.244 
L 367.531432 84.244 
L 367.531432 84.244 
L 367.531432 84.244 
L 367.531432 84.244 
L 367.531432 84.244 
L 367.531432 84.244 
L 367.531432 84.244 
L 367.531432 84.244 
L 367.531432 84.244 
L 367.531432 84.244 
L 367.531432 84.244 
L 367.531432 84.244 
L 367.531432 84.244 
L 367.531432 84.244 
L 367.531432 84.244 
L 367.531432 84.244 
L 367.531432 84.244 
L 367.531432 84.244 
L 367.531432 84.244 
L 367.531432 84.244 
L 367.531432 84.244 
L 367.531432 84.244 
L 367.531432 84.244 
L 367.531432 84.244 
L 367.531432 84.244 
L 367.531432 84.244 
L 367.531432 84.244 
L 367.531432 84.244 
L 367.531432 84.244 
L 367.531432 84.244 
L 367.531432 84.244 
L 367.531432 84.244 
L 367.531432 84.244 
L 367.531432 84.244 
L 367.531432 84.244 
L 367.531432 84.244 
L 367.531432 84.244 
L 367.531432 84.244 
L 367.531432 84.244 
L 367.531432 84.244 
L 367.531432 84.244 
L 367.531432 84.244 
L 367.531432 84.244 
L 367.531432 84.244 
L 367.531432 84.244 
L 367.531432 84.244 
L 367.531432 84.244 
L 367.531432 84.244 
L 367.531432 84.244 
L 367.531432 84.244 
L 367.531432 84.244 
L 367.531432 84.244 
L 367.531432 84.244 
L 367.531432 84.244 
L 367.531432 84.244 
L 367.531432 84.244 
L 367.531432 84.244 
L 367.531432 84.244 
L 367.531432 84.244 
L 367.531432 84.244 
L 367.531432 84.244 
L 367.531432 84.244 
L 367.531432 84.244 
L 367.531432 84.244 
L 367.531432 84.244 
L 367.531432 84.244 
L 367.531432 84.244 
L 367.531432 84.244 
L 367.531432 84.244 
L 367.531432 84.244 
L 367.531432 84.244 
L 367.531432 84.244 
L 367.531432 84.244 
L 367.531432 84.244 
L 367.531432 84.244 
L 367.531432 84.244 
L 367.531432 84.244 
L 367.531432 84.244 
L 367.531432 84.244 
L 367.531432 84.244 
L 367.531432 84.244 
L 367.531432 84.244 
L 367.531432 84.244 
L 367.531432 84.244 
L 367.531432 84.244 
L 367.531432 84.244 
L 367.531432 84.244 
L 367.531432 84.244 
L 367.531432 84.244 
L 367.531432 84.244 
L 367.531432 84.244 
L 367.531432 84.244 
L 367.531432 84.244 
L 367.531432 84.244 
L 367.531432 84.244 
L 367.531432 84.244 
L 367.531432 84.244 
L 367.531432 84.244 
L 367.531432 84.244 
L 367.531432 84.244 
" clip-path="url(#p1d5f9882f0)" style="fill: none"/>
    <defs>
     <path id="m1c6f90e5b2" d="M -10 10 
L 10 -10 
M -10 -10 
L 10 10 
" style="stroke: #008000"/>
    </defs>
    <g clip-path="url(#p1d5f9882f0)">
     <use xlink:href="#m1c6f90e5b2" x="367.531432" y="84.244" style="fill: #008000; stroke: #008000"/>
     <use xlink:href="#m1c6f90e5b2" x="367.531432" y="84.244" style="fill: #008000; stroke: #008000"/>
     <use xlink:href="#m1c6f90e5b2" x="367.531432" y="84.244" style="fill: #008000; stroke: #008000"/>
     <use xlink:href="#m1c6f90e5b2" x="367.531432" y="84.244" style="fill: #008000; stroke: #008000"/>
     <use xlink:href="#m1c6f90e5b2" x="367.531432" y="84.244" style="fill: #008000; stroke: #008000"/>
     <use xlink:href="#m1c6f90e5b2" x="367.531432" y="84.244" style="fill: #008000; stroke: #008000"/>
     <use xlink:href="#m1c6f90e5b2" x="367.531432" y="84.244" style="fill: #008000; stroke: #008000"/>
     <use xlink:href="#m1c6f90e5b2" x="367.531432" y="84.244" style="fill: #008000; stroke: #008000"/>
     <use xlink:href="#m1c6f90e5b2" x="367.531432" y="84.244" style="fill: #008000; stroke: #008000"/>
     <use xlink:href="#m1c6f90e5b2" x="367.531432" y="84.244" style="fill: #008000; stroke: #008000"/>
     <use xlink:href="#m1c6f90e5b2" x="367.531432" y="84.244" style="fill: #008000; stroke: #008000"/>
     <use xlink:href="#m1c6f90e5b2" x="367.531432" y="84.244" style="fill: #008000; stroke: #008000"/>
     <use xlink:href="#m1c6f90e5b2" x="367.531432" y="84.244" style="fill: #008000; stroke: #008000"/>
     <use xlink:href="#m1c6f90e5b2" x="367.531432" y="84.244" style="fill: #008000; stroke: #008000"/>
     <use xlink:href="#m1c6f90e5b2" x="367.531432" y="84.244" style="fill: #008000; stroke: #008000"/>
     <use xlink:href="#m1c6f90e5b2" x="367.531432" y="84.244" style="fill: #008000; stroke: #008000"/>
     <use xlink:href="#m1c6f90e5b2" x="367.531432" y="84.244" style="fill: #008000; stroke: #008000"/>
     <use xlink:href="#m1c6f90e5b2" x="367.531432" y="84.244" style="fill: #008000; stroke: #008000"/>
     <use xlink:href="#m1c6f90e5b2" x="367.531432" y="84.244" style="fill: #008000; stroke: #008000"/>
     <use xlink:href="#m1c6f90e5b2" x="367.531432" y="84.244" style="fill: #008000; stroke: #008000"/>
     <use xlink:href="#m1c6f90e5b2" x="367.531432" y="84.244" style="fill: #008000; stroke: #008000"/>
     <use xlink:href="#m1c6f90e5b2" x="367.531432" y="84.244" style="fill: #008000; stroke: #008000"/>
     <use xlink:href="#m1c6f90e5b2" x="367.531432" y="84.244" style="fill: #008000; stroke: #008000"/>
     <use xlink:href="#m1c6f90e5b2" x="367.531432" y="84.244" style="fill: #008000; stroke: #008000"/>
     <use xlink:href="#m1c6f90e5b2" x="367.531432" y="84.244" style="fill: #008000; stroke: #008000"/>
     <use xlink:href="#m1c6f90e5b2" x="367.531432" y="84.244" style="fill: #008000; stroke: #008000"/>
     <use xlink:href="#m1c6f90e5b2" x="367.531432" y="84.244" style="fill: #008000; stroke: #008000"/>
     <use xlink:href="#m1c6f90e5b2" x="367.531432" y="84.244" style="fill: #008000; stroke: #008000"/>
     <use xlink:href="#m1c6f90e5b2" x="367.531432" y="84.244" style="fill: #008000; stroke: #008000"/>
     <use xlink:href="#m1c6f90e5b2" x="367.531432" y="84.244" style="fill: #008000; stroke: #008000"/>
     <use xlink:href="#m1c6f90e5b2" x="367.531432" y="84.244" style="fill: #008000; stroke: #008000"/>
     <use xlink:href="#m1c6f90e5b2" x="367.531432" y="84.244" style="fill: #008000; stroke: #008000"/>
     <use xlink:href="#m1c6f90e5b2" x="367.531432" y="84.244" style="fill: #008000; stroke: #008000"/>
     <use xlink:href="#m1c6f90e5b2" x="367.531432" y="84.244" style="fill: #008000; stroke: #008000"/>
     <use xlink:href="#m1c6f90e5b2" x="367.531432" y="84.244" style="fill: #008000; stroke: #008000"/>
     <use xlink:href="#m1c6f90e5b2" x="367.531432" y="84.244" style="fill: #008000; stroke: #008000"/>
     <use xlink:href="#m1c6f90e5b2" x="367.531432" y="84.244" style="fill: #008000; stroke: #008000"/>
     <use xlink:href="#m1c6f90e5b2" x="367.531432" y="84.244" style="fill: #008000; stroke: #008000"/>
     <use xlink:href="#m1c6f90e5b2" x="367.531432" y="84.244" style="fill: #008000; stroke: #008000"/>
     <use xlink:href="#m1c6f90e5b2" x="367.531432" y="84.244" style="fill: #008000; stroke: #008000"/>
     <use xlink:href="#m1c6f90e5b2" x="367.531432" y="84.244" style="fill: #008000; stroke: #008000"/>
     <use xlink:href="#m1c6f90e5b2" x="367.531432" y="84.244" style="fill: #008000; stroke: #008000"/>
     <use xlink:href="#m1c6f90e5b2" x="367.531432" y="84.244" style="fill: #008000; stroke: #008000"/>
     <use xlink:href="#m1c6f90e5b2" x="367.531432" y="84.244" style="fill: #008000; stroke: #008000"/>
     <use xlink:href="#m1c6f90e5b2" x="367.531432" y="84.244" style="fill: #008000; stroke: #008000"/>
     <use xlink:href="#m1c6f90e5b2" x="367.531432" y="84.244" style="fill: #008000; stroke: #008000"/>
     <use xlink:href="#m1c6f90e5b2" x="367.531432" y="84.244" style="fill: #008000; stroke: #008000"/>
     <use xlink:href="#m1c6f90e5b2" x="367.531432" y="84.244" style="fill: #008000; stroke: #008000"/>
     <use xlink:href="#m1c6f90e5b2" x="367.531432" y="84.244" style="fill: #008000; stroke: #008000"/>
     <use xlink:href="#m1c6f90e5b2" x="367.531432" y="84.244" style="fill: #008000; stroke: #008000"/>
     <use xlink:href="#m1c6f90e5b2" x="367.531432" y="84.244" style="fill: #008000; stroke: #008000"/>
     <use xlink:href="#m1c6f90e5b2" x="367.531432" y="84.244" style="fill: #008000; stroke: #008000"/>
     <use xlink:href="#m1c6f90e5b2" x="367.531432" y="84.244" style="fill: #008000; stroke: #008000"/>
     <use xlink:href="#m1c6f90e5b2" x="367.531432" y="84.244" style="fill: #008000; stroke: #008000"/>
     <use xlink:href="#m1c6f90e5b2" x="367.531432" y="84.244" style="fill: #008000; stroke: #008000"/>
     <use xlink:href="#m1c6f90e5b2" x="367.531432" y="84.244" style="fill: #008000; stroke: #008000"/>
     <use xlink:href="#m1c6f90e5b2" x="367.531432" y="84.244" style="fill: #008000; stroke: #008000"/>
     <use xlink:href="#m1c6f90e5b2" x="367.531432" y="84.244" style="fill: #008000; stroke: #008000"/>
     <use xlink:href="#m1c6f90e5b2" x="367.531432" y="84.244" style="fill: #008000; stroke: #008000"/>
     <use xlink:href="#m1c6f90e5b2" x="367.531432" y="84.244" style="fill: #008000; stroke: #008000"/>
     <use xlink:href="#m1c6f90e5b2" x="367.531432" y="84.244" style="fill: #008000; stroke: #008000"/>
     <use xlink:href="#m1c6f90e5b2" x="367.531432" y="84.244" style="fill: #008000; stroke: #008000"/>
     <use xlink:href="#m1c6f90e5b2" x="367.531432" y="84.244" style="fill: #008000; stroke: #008000"/>
     <use xlink:href="#m1c6f90e5b2" x="367.531432" y="84.244" style="fill: #008000; stroke: #008000"/>
     <use xlink:href="#m1c6f90e5b2" x="367.531432" y="84.244" style="fill: #008000; stroke: #008000"/>
     <use xlink:href="#m1c6f90e5b2" x="367.531432" y="84.244" style="fill: #008000; stroke: #008000"/>
     <use xlink:href="#m1c6f90e5b2" x="367.531432" y="84.244" style="fill: #008000; stroke: #008000"/>
     <use xlink:href="#m1c6f90e5b2" x="367.531432" y="84.244" style="fill: #008000; stroke: #008000"/>
     <use xlink:href="#m1c6f90e5b2" x="367.531432" y="84.244" style="fill: #008000; stroke: #008000"/>
     <use xlink:href="#m1c6f90e5b2" x="367.531432" y="84.244" style="fill: #008000; stroke: #008000"/>
     <use xlink:href="#m1c6f90e5b2" x="367.531432" y="84.244" style="fill: #008000; stroke: #008000"/>
     <use xlink:href="#m1c6f90e5b2" x="367.531432" y="84.244" style="fill: #008000; stroke: #008000"/>
     <use xlink:href="#m1c6f90e5b2" x="367.531432" y="84.244" style="fill: #008000; stroke: #008000"/>
     <use xlink:href="#m1c6f90e5b2" x="367.531432" y="84.244" style="fill: #008000; stroke: #008000"/>
     <use xlink:href="#m1c6f90e5b2" x="367.531432" y="84.244" style="fill: #008000; stroke: #008000"/>
     <use xlink:href="#m1c6f90e5b2" x="367.531432" y="84.244" style="fill: #008000; stroke: #008000"/>
     <use xlink:href="#m1c6f90e5b2" x="367.531432" y="84.244" style="fill: #008000; stroke: #008000"/>
     <use xlink:href="#m1c6f90e5b2" x="367.531432" y="84.244" style="fill: #008000; stroke: #008000"/>
     <use xlink:href="#m1c6f90e5b2" x="367.531432" y="84.244" style="fill: #008000; stroke: #008000"/>
     <use xlink:href="#m1c6f90e5b2" x="367.531432" y="84.244" style="fill: #008000; stroke: #008000"/>
     <use xlink:href="#m1c6f90e5b2" x="367.531432" y="84.244" style="fill: #008000; stroke: #008000"/>
     <use xlink:href="#m1c6f90e5b2" x="367.531432" y="84.244" style="fill: #008000; stroke: #008000"/>
     <use xlink:href="#m1c6f90e5b2" x="367.531432" y="84.244" style="fill: #008000; stroke: #008000"/>
     <use xlink:href="#m1c6f90e5b2" x="367.531432" y="84.244" style="fill: #008000; stroke: #008000"/>
     <use xlink:href="#m1c6f90e5b2" x="367.531432" y="84.244" style="fill: #008000; stroke: #008000"/>
     <use xlink:href="#m1c6f90e5b2" x="367.531432" y="84.244" style="fill: #008000; stroke: #008000"/>
     <use xlink:href="#m1c6f90e5b2" x="367.531432" y="84.244" style="fill: #008000; stroke: #008000"/>
     <use xlink:href="#m1c6f90e5b2" x="367.531432" y="84.244" style="fill: #008000; stroke: #008000"/>
     <use xlink:href="#m1c6f90e5b2" x="367.531432" y="84.244" style="fill: #008000; stroke: #008000"/>
     <use xlink:href="#m1c6f90e5b2" x="367.531432" y="84.244" style="fill: #008000; stroke: #008000"/>
     <use xlink:href="#m1c6f90e5b2" x="367.531432" y="84.244" style="fill: #008000; stroke: #008000"/>
     <use xlink:href="#m1c6f90e5b2" x="367.531432" y="84.244" style="fill: #008000; stroke: #008000"/>
     <use xlink:href="#m1c6f90e5b2" x="367.531432" y="84.244" style="fill: #008000; stroke: #008000"/>
     <use xlink:href="#m1c6f90e5b2" x="367.531432" y="84.244" style="fill: #008000; stroke: #008000"/>
     <use xlink:href="#m1c6f90e5b2" x="367.531432" y="84.244" style="fill: #008000; stroke: #008000"/>
     <use xlink:href="#m1c6f90e5b2" x="367.531432" y="84.244" style="fill: #008000; stroke: #008000"/>
     <use xlink:href="#m1c6f90e5b2" x="367.531432" y="84.244" style="fill: #008000; stroke: #008000"/>
     <use xlink:href="#m1c6f90e5b2" x="367.531432" y="84.244" style="fill: #008000; stroke: #008000"/>
     <use xlink:href="#m1c6f90e5b2" x="367.531432" y="84.244" style="fill: #008000; stroke: #008000"/>
     <use xlink:href="#m1c6f90e5b2" x="367.531432" y="84.244" style="fill: #008000; stroke: #008000"/>
     <use xlink:href="#m1c6f90e5b2" x="367.531432" y="84.244" style="fill: #008000; stroke: #008000"/>
    </g>
   </g>
   <g id="line2d_26">
    <path d="M 367.531432 84.244 
L 364.886296 86.215347 
L 362.241005 88.186578 
L 359.595697 90.157797 
L 356.950387 92.129015 
L 354.305073 94.100229 
L 351.659763 96.071446 
L 349.014445 98.042658 
L 346.369128 100.01387 
L 343.723799 101.985073 
L 341.078471 103.956277 
L 338.433166 105.927499 
L 335.787843 107.898706 
L 333.14253 109.869922 
L 330.496962 111.840946 
L 327.851624 113.812143 
L 325.206298 115.783348 
L 322.560961 117.754546 
L 319.915631 119.725748 
L 317.270297 121.696948 
L 314.624964 123.668148 
L 311.979632 125.639349 
L 309.334299 127.610549 
L 306.688972 129.581754 
L 304.043639 131.552954 
L 301.398305 133.524154 
L 298.752972 135.495353 
L 296.107638 137.466553 
L 293.462304 139.437753 
L 290.816971 141.408953 
L 288.171637 143.380152 
L 285.526306 145.351354 
L 282.880975 147.322556 
L 280.235644 149.293758 
L 277.590312 151.264959 
L 274.944979 153.236159 
L 272.299646 155.207359 
L 269.654315 157.178561 
L 267.008984 159.149763 
L 264.363654 161.120965 
L 261.718325 163.092168 
L 259.072996 165.063372 
L 256.427668 167.034576 
L 253.782332 169.005774 
L 251.137004 170.976978 
L 248.491676 172.948182 
L 245.846349 174.919387 
L 243.201017 176.890588 
L 240.555685 178.861789 
L 237.910354 180.83299 
L 235.265021 182.804191 
L 232.619691 184.775393 
L 229.974362 186.746596 
L 227.329032 188.717799 
L 224.683703 190.689002 
L 222.038374 192.660205 
L 219.393045 194.631408 
L 216.747715 196.602611 
L 214.102385 198.573813 
L 211.457055 200.545015 
L 208.811724 202.516217 
L 206.166392 204.487419 
L 203.52106 206.45862 
L 200.875728 208.42982 
L 198.230395 210.401021 
L 195.585075 212.372231 
L 192.939737 214.343427 
L 190.294405 216.314628 
L 187.649072 218.285828 
L 185.003741 220.25703 
L 182.3584 222.228224 
L 179.713063 224.199422 
L 177.067734 226.170625 
L 174.422404 228.141827 
L 171.777075 230.113031 
L 169.131761 232.084245 
L 166.486446 234.055459 
L 163.841129 236.026671 
L 161.195812 237.997883 
L 158.550488 239.96909 
L 155.905162 241.940296 
L 153.259828 243.911495 
L 150.614503 245.882701 
L 147.969163 247.853896 
L 145.32382 249.825089 
L 142.678477 251.796282 
L 140.033135 253.767475 
L 137.387785 255.738663 
L 134.742437 257.709852 
L 132.097103 259.681051 
L 129.451761 261.652245 
L 126.806491 263.623492 
L 124.161166 265.594699 
L 121.515816 267.565886 
L 118.870263 269.536922 
L 116.22491 271.508107 
L 113.579592 273.479319 
L 110.934272 275.450529 
L 108.288905 277.421704 
L 105.643495 279.392847 
L 102.998175 281.363966 
" clip-path="url(#p1d5f9882f0)" style="fill: none; stroke: #ffa500; stroke-width: 0.5; stroke-linecap: square"/>
   </g>
   <g id="text_15">
    <!-- 0.0 -->
    <g style="fill: #ffa500" transform="translate(79.851508 271.507966) scale(0.12 -0.12)">
     <use xlink:href="#DejaVuSans-30"/>
     <use xlink:href="#DejaVuSans-2e" x="63.623047"/>
     <use xlink:href="#DejaVuSans-30" x="95.410156"/>
    </g>
   </g>
   <g id="PathCollection_3">
    <defs>
     <path id="m22b69c1284" d="M -0 5 
L 3 0 
L 0 -5 
L -3 -0 
z
" style="stroke: #ffa500"/>
    </defs>
    <g clip-path="url(#p1d5f9882f0)">
     <use xlink:href="#m22b69c1284" x="102.998175" y="281.363966" style="fill: #ffa500; stroke: #ffa500"/>
    </g>
   </g>
   <g id="text_16">
    <!-- 0.5 -->
    <g style="fill: #ffa500" transform="translate(212.118355 172.948191) scale(0.12 -0.12)">
     <use xlink:href="#DejaVuSans-30"/>
     <use xlink:href="#DejaVuSans-2e" x="63.623047"/>
     <use xlink:href="#DejaVuSans-35" x="95.410156"/>
    </g>
   </g>
   <g id="PathCollection_4">
    <g clip-path="url(#p1d5f9882f0)">
     <use xlink:href="#m22b69c1284" x="235.265021" y="182.804191" style="fill: #ffa500; stroke: #ffa500"/>
    </g>
   </g>
   <g id="text_17">
    <!-- $\alpha$=1.0 -->
    <g style="fill: #ffa500" transform="translate(314.624766 74.388) scale(0.12 -0.12)">
     <defs>
      <path id="DejaVuSans-Oblique-3b1" d="M 2619 1628 
L 2622 2350 
Q 2625 3088 2069 3091 
Q 1653 3094 1394 2747 
Q 1069 2319 959 1747 
Q 825 1059 994 731 
Q 1169 397 1547 397 
Q 1966 397 2319 1063 
L 2619 1628 
z
M 2166 3578 
Q 3141 3594 3128 2584 
Q 3128 2584 3616 3500 
L 4128 3500 
L 3119 1603 
L 3109 919 
Q 3109 766 3194 638 
Q 3291 488 3391 488 
L 3669 488 
L 3575 0 
L 3228 0 
Q 2934 0 2722 263 
Q 2622 394 2619 669 
Q 2416 334 2066 50 
Q 1900 -81 1453 -78 
Q 722 -72 456 397 
Q 184 884 353 1747 
Q 534 2675 1009 3097 
Q 1544 3569 2166 3578 
z
" transform="scale(0.015625)"/>
      <path id="DejaVuSans-3d" d="M 678 2906 
L 4684 2906 
L 4684 2381 
L 678 2381 
L 678 2906 
z
M 678 1631 
L 4684 1631 
L 4684 1100 
L 678 1100 
L 678 1631 
z
" transform="scale(0.015625)"/>
     </defs>
     <use xlink:href="#DejaVuSans-Oblique-3b1" transform="translate(0 0.78125)"/>
     <use xlink:href="#DejaVuSans-3d" transform="translate(65.917969 0.78125)"/>
     <use xlink:href="#DejaVuSans-31" transform="translate(149.707031 0.78125)"/>
     <use xlink:href="#DejaVuSans-2e" transform="translate(213.330078 0.78125)"/>
     <use xlink:href="#DejaVuSans-30" transform="translate(245.117188 0.78125)"/>
    </g>
   </g>
   <g id="PathCollection_5">
    <g clip-path="url(#p1d5f9882f0)">
     <use xlink:href="#m22b69c1284" x="367.531432" y="84.244" style="fill: #ffa500; stroke: #ffa500"/>
    </g>
   </g>
   <g id="legend_1">
    <g id="PathCollection_6">
     <defs>
      <path id="me60e6b96f7" d="M 0 14.012478 
C 3.716153 14.012478 7.280602 12.536035 9.908318 9.908318 
C 12.536035 7.280602 14.012478 3.716153 14.012478 0 
C 14.012478 -3.716153 12.536035 -7.280602 9.908318 -9.908318 
C 7.280602 -12.536035 3.716153 -14.012478 0 -14.012478 
C -3.716153 -14.012478 -7.280602 -12.536035 -9.908318 -9.908318 
C -12.536035 -7.280602 -14.012478 -3.716153 -14.012478 0 
C -14.012478 3.716153 -12.536035 7.280602 -9.908318 9.908318 
C -7.280602 12.536035 -3.716153 14.012478 0 14.012478 
z
" style="stroke: #0000ff; stroke-opacity: 0.25"/>
     </defs>
     <g>
      <use xlink:href="#me60e6b96f7" x="22.6" y="17.070781" style="fill: #0000ff; fill-opacity: 0.25; stroke: #0000ff; stroke-opacity: 0.25"/>
     </g>
    </g>
    <g id="text_18">
     <!-- giFBA Result -->
     <g transform="translate(42.4 19.958281) scale(0.11 -0.11)">
      <defs>
       <path id="DejaVuSans-41" d="M 2188 4044 
L 1331 1722 
L 3047 1722 
L 2188 4044 
z
M 1831 4666 
L 2547 4666 
L 4325 0 
L 3669 0 
L 3244 1197 
L 1141 1197 
L 716 0 
L 50 0 
L 1831 4666 
z
" transform="scale(0.015625)"/>
       <path id="DejaVuSans-52" d="M 2841 2188 
Q 3044 2119 3236 1894 
Q 3428 1669 3622 1275 
L 4263 0 
L 3584 0 
L 2988 1197 
Q 2756 1666 2539 1819 
Q 2322 1972 1947 1972 
L 1259 1972 
L 1259 0 
L 628 0 
L 628 4666 
L 2053 4666 
Q 2853 4666 3247 4331 
Q 3641 3997 3641 3322 
Q 3641 2881 3436 2590 
Q 3231 2300 2841 2188 
z
M 1259 4147 
L 1259 2491 
L 2053 2491 
Q 2509 2491 2742 2702 
Q 2975 2913 2975 3322 
Q 2975 3731 2742 3939 
Q 2509 4147 2053 4147 
L 1259 4147 
z
" transform="scale(0.015625)"/>
      </defs>
      <use xlink:href="#DejaVuSans-67"/>
      <use xlink:href="#DejaVuSans-69" x="63.476562"/>
      <use xlink:href="#DejaVuSans-46" x="91.259766"/>
      <use xlink:href="#DejaVuSans-42" x="148.779297"/>
      <use xlink:href="#DejaVuSans-41" x="217.382812"/>
      <use xlink:href="#DejaVuSans-20" x="285.791016"/>
      <use xlink:href="#DejaVuSans-52" x="317.578125"/>
      <use xlink:href="#DejaVuSans-65" x="382.560547"/>
      <use xlink:href="#DejaVuSans-73" x="444.083984"/>
      <use xlink:href="#DejaVuSans-75" x="496.183594"/>
      <use xlink:href="#DejaVuSans-6c" x="559.5625"/>
      <use xlink:href="#DejaVuSans-74" x="587.345703"/>
     </g>
    </g>
    <g id="PathCollection_7">
     <g>
      <use xlink:href="#m32590086c1" x="144.320156" y="17.070781" style="fill: #ff0000; stroke: #ff0000"/>
     </g>
    </g>
    <g id="text_19">
     <!-- FBA Result -->
     <g transform="translate(164.120156 19.958281) scale(0.11 -0.11)">
      <use xlink:href="#DejaVuSans-46"/>
      <use xlink:href="#DejaVuSans-42" x="57.519531"/>
      <use xlink:href="#DejaVuSans-41" x="126.123047"/>
      <use xlink:href="#DejaVuSans-20" x="194.53125"/>
      <use xlink:href="#DejaVuSans-52" x="226.318359"/>
      <use xlink:href="#DejaVuSans-65" x="291.300781"/>
      <use xlink:href="#DejaVuSans-73" x="352.824219"/>
      <use xlink:href="#DejaVuSans-75" x="404.923828"/>
      <use xlink:href="#DejaVuSans-6c" x="468.302734"/>
      <use xlink:href="#DejaVuSans-74" x="496.085938"/>
     </g>
    </g>
    <g id="line2d_27">
     <path d="M 245.001094 16.108281 
L 256.001094 16.108281 
L 267.001094 16.108281 
" style="fill: none"/>
     <g>
      <use xlink:href="#m1c6f90e5b2" x="256.001094" y="16.108281" style="fill: #008000; stroke: #008000"/>
     </g>
    </g>
    <g id="text_20">
     <!-- cFBA Sol. Space -->
     <g transform="translate(275.801094 19.958281) scale(0.11 -0.11)">
      <defs>
       <path id="DejaVuSans-63" d="M 3122 3366 
L 3122 2828 
Q 2878 2963 2633 3030 
Q 2388 3097 2138 3097 
Q 1578 3097 1268 2742 
Q 959 2388 959 1747 
Q 959 1106 1268 751 
Q 1578 397 2138 397 
Q 2388 397 2633 464 
Q 2878 531 3122 666 
L 3122 134 
Q 2881 22 2623 -34 
Q 2366 -91 2075 -91 
Q 1284 -91 818 406 
Q 353 903 353 1747 
Q 353 2603 823 3093 
Q 1294 3584 2113 3584 
Q 2378 3584 2631 3529 
Q 2884 3475 3122 3366 
z
" transform="scale(0.015625)"/>
       <path id="DejaVuSans-53" d="M 3425 4513 
L 3425 3897 
Q 3066 4069 2747 4153 
Q 2428 4238 2131 4238 
Q 1616 4238 1336 4038 
Q 1056 3838 1056 3469 
Q 1056 3159 1242 3001 
Q 1428 2844 1947 2747 
L 2328 2669 
Q 3034 2534 3370 2195 
Q 3706 1856 3706 1288 
Q 3706 609 3251 259 
Q 2797 -91 1919 -91 
Q 1588 -91 1214 -16 
Q 841 59 441 206 
L 441 856 
Q 825 641 1194 531 
Q 1563 422 1919 422 
Q 2459 422 2753 634 
Q 3047 847 3047 1241 
Q 3047 1584 2836 1778 
Q 2625 1972 2144 2069 
L 1759 2144 
Q 1053 2284 737 2584 
Q 422 2884 422 3419 
Q 422 4038 858 4394 
Q 1294 4750 2059 4750 
Q 2388 4750 2728 4690 
Q 3069 4631 3425 4513 
z
" transform="scale(0.015625)"/>
       <path id="DejaVuSans-70" d="M 1159 525 
L 1159 -1331 
L 581 -1331 
L 581 3500 
L 1159 3500 
L 1159 2969 
Q 1341 3281 1617 3432 
Q 1894 3584 2278 3584 
Q 2916 3584 3314 3078 
Q 3713 2572 3713 1747 
Q 3713 922 3314 415 
Q 2916 -91 2278 -91 
Q 1894 -91 1617 61 
Q 1341 213 1159 525 
z
M 3116 1747 
Q 3116 2381 2855 2742 
Q 2594 3103 2138 3103 
Q 1681 3103 1420 2742 
Q 1159 2381 1159 1747 
Q 1159 1113 1420 752 
Q 1681 391 2138 391 
Q 2594 391 2855 752 
Q 3116 1113 3116 1747 
z
" transform="scale(0.015625)"/>
      </defs>
      <use xlink:href="#DejaVuSans-63"/>
      <use xlink:href="#DejaVuSans-46" x="54.980469"/>
      <use xlink:href="#DejaVuSans-42" x="112.5"/>
      <use xlink:href="#DejaVuSans-41" x="181.103516"/>
      <use xlink:href="#DejaVuSans-20" x="249.511719"/>
      <use xlink:href="#DejaVuSans-53" x="281.298828"/>
      <use xlink:href="#DejaVuSans-6f" x="344.775391"/>
      <use xlink:href="#DejaVuSans-6c" x="405.957031"/>
      <use xlink:href="#DejaVuSans-2e" x="433.740234"/>
      <use xlink:href="#DejaVuSans-20" x="465.527344"/>
      <use xlink:href="#DejaVuSans-53" x="497.314453"/>
      <use xlink:href="#DejaVuSans-70" x="560.791016"/>
      <use xlink:href="#DejaVuSans-61" x="624.267578"/>
      <use xlink:href="#DejaVuSans-63" x="685.546875"/>
      <use xlink:href="#DejaVuSans-65" x="740.527344"/>
     </g>
    </g>
    <g id="line2d_28">
     <path d="M 386.029688 16.108281 
L 397.029688 16.108281 
L 408.029688 16.108281 
" style="fill: none; stroke: #ffa500; stroke-width: 0.5; stroke-linecap: square"/>
     <defs>
      <path id="md06cb28fa8" d="M -0 4.242641 
L 2.545584 0 
L 0 -4.242641 
L -2.545584 -0 
z
" style="stroke: #ffa500; stroke-linejoin: miter"/>
     </defs>
     <g>
      <use xlink:href="#md06cb28fa8" x="397.029688" y="16.108281" style="fill: #ffa500; stroke: #ffa500; stroke-linejoin: miter"/>
     </g>
    </g>
    <g id="text_21">
     <!-- MICOM Results -->
     <g transform="translate(416.829688 19.958281) scale(0.11 -0.11)">
      <defs>
       <path id="DejaVuSans-4d" d="M 628 4666 
L 1569 4666 
L 2759 1491 
L 3956 4666 
L 4897 4666 
L 4897 0 
L 4281 0 
L 4281 4097 
L 3078 897 
L 2444 897 
L 1241 4097 
L 1241 0 
L 628 0 
L 628 4666 
z
" transform="scale(0.015625)"/>
       <path id="DejaVuSans-49" d="M 628 4666 
L 1259 4666 
L 1259 0 
L 628 0 
L 628 4666 
z
" transform="scale(0.015625)"/>
      </defs>
      <use xlink:href="#DejaVuSans-4d"/>
      <use xlink:href="#DejaVuSans-49" x="86.279297"/>
      <use xlink:href="#DejaVuSans-43" x="115.771484"/>
      <use xlink:href="#DejaVuSans-4f" x="185.595703"/>
      <use xlink:href="#DejaVuSans-4d" x="264.306641"/>
      <use xlink:href="#DejaVuSans-20" x="350.585938"/>
      <use xlink:href="#DejaVuSans-52" x="382.373047"/>
      <use xlink:href="#DejaVuSans-65" x="447.355469"/>
      <use xlink:href="#DejaVuSans-73" x="508.878906"/>
      <use xlink:href="#DejaVuSans-75" x="560.978516"/>
      <use xlink:href="#DejaVuSans-6c" x="624.357422"/>
      <use xlink:href="#DejaVuSans-74" x="652.140625"/>
      <use xlink:href="#DejaVuSans-73" x="691.349609"/>
     </g>
    </g>
   </g>
  </g>
 </g>
 <defs>
  <clipPath id="p1d5f9882f0">
   <rect x="76.544766" y="34.964" width="357.12" height="266.112"/>
  </clipPath>
 </defs>
</svg>
