<?xml version="1.0" encoding="utf-8" standalone="no"?>
<!DOCTYPE svg PUBLIC "-//W3C//DTD SVG 1.1//EN"
  "http://www.w3.org/Graphics/SVG/1.1/DTD/svg11.dtd">
<svg xmlns:xlink="http://www.w3.org/1999/xlink" width="427.934688pt" height="350.514125pt" viewBox="0 0 427.934688 350.514125" xmlns="http://www.w3.org/2000/svg" version="1.1">
 <metadata>
  <rdf:RDF xmlns:dc="http://purl.org/dc/elements/1.1/" xmlns:cc="http://creativecommons.org/ns#" xmlns:rdf="http://www.w3.org/1999/02/22-rdf-syntax-ns#">
   <cc:Work>
    <dc:type rdf:resource="http://purl.org/dc/dcmitype/StillImage"/>
    <dc:date>2025-12-19T12:23:18.835884</dc:date>
    <dc:format>image/svg+xml</dc:format>
    <dc:creator>
     <cc:Agent>
      <dc:title>Matplotlib v3.9.2, https://matplotlib.org/</dc:title>
     </cc:Agent>
    </dc:creator>
   </cc:Work>
  </rdf:RDF>
 </metadata>
 <defs>
  <style type="text/css">*{stroke-linejoin: round; stroke-linecap: butt}</style>
 </defs>
 <g id="figure_1">
  <g id="patch_1">
   <path d="M 0 350.514125 
L 427.934688 350.514125 
L 427.934688 0 
L 0 0 
z
" style="fill: #ffffff"/>
  </g>
  <g id="axes_1">
   <g id="patch_2">
    <path d="M 55.663125 301.076 
L 412.783125 301.076 
L 412.783125 34.964 
L 55.663125 34.964 
z
" style="fill: #ffffff"/>
   </g>
   <g id="matplotlib.axis_1">
    <g id="xtick_1">
     <g id="line2d_1">
      <path d="M 55.663125 301.076 
L 55.663125 34.964 
" clip-path="url(#pe2476a6868)" style="fill: none; stroke: #b0b0b0; stroke-width: 0.8; stroke-linecap: square"/>
     </g>
     <g id="line2d_2">
      <defs>
       <path id="mdbefc35732" d="M 0 0 
L 0 3.5 
" style="stroke: #000000; stroke-width: 0.8"/>
      </defs>
      <g>
       <use xlink:href="#mdbefc35732" x="55.663125" y="301.076" style="stroke: #000000; stroke-width: 0.8"/>
      </g>
     </g>
     <g id="text_1">
      <!-- 0.0 -->
      <g transform="translate(47.711563 315.674437) scale(0.1 -0.1)">
       <defs>
        <path id="DejaVuSans-30" d="M 2034 4250 
Q 1547 4250 1301 3770 
Q 1056 3291 1056 2328 
Q 1056 1369 1301 889 
Q 1547 409 2034 409 
Q 2525 409 2770 889 
Q 3016 1369 3016 2328 
Q 3016 3291 2770 3770 
Q 2525 4250 2034 4250 
z
M 2034 4750 
Q 2819 4750 3233 4129 
Q 3647 3509 3647 2328 
Q 3647 1150 3233 529 
Q 2819 -91 2034 -91 
Q 1250 -91 836 529 
Q 422 1150 422 2328 
Q 422 3509 836 4129 
Q 1250 4750 2034 4750 
z
" transform="scale(0.015625)"/>
        <path id="DejaVuSans-2e" d="M 684 794 
L 1344 794 
L 1344 0 
L 684 0 
L 684 794 
z
" transform="scale(0.015625)"/>
       </defs>
       <use xlink:href="#DejaVuSans-30"/>
       <use xlink:href="#DejaVuSans-2e" x="63.623047"/>
       <use xlink:href="#DejaVuSans-30" x="95.410156"/>
      </g>
     </g>
    </g>
    <g id="xtick_2">
     <g id="line2d_3">
      <path d="M 127.087125 301.076 
L 127.087125 34.964 
" clip-path="url(#pe2476a6868)" style="fill: none; stroke: #b0b0b0; stroke-width: 0.8; stroke-linecap: square"/>
     </g>
     <g id="line2d_4">
      <g>
       <use xlink:href="#mdbefc35732" x="127.087125" y="301.076" style="stroke: #000000; stroke-width: 0.8"/>
      </g>
     </g>
     <g id="text_2">
      <!-- 0.1 -->
      <g transform="translate(119.135563 315.674437) scale(0.1 -0.1)">
       <defs>
        <path id="DejaVuSans-31" d="M 794 531 
L 1825 531 
L 1825 4091 
L 703 3866 
L 703 4441 
L 1819 4666 
L 2450 4666 
L 2450 531 
L 3481 531 
L 3481 0 
L 794 0 
L 794 531 
z
" transform="scale(0.015625)"/>
       </defs>
       <use xlink:href="#DejaVuSans-30"/>
       <use xlink:href="#DejaVuSans-2e" x="63.623047"/>
       <use xlink:href="#DejaVuSans-31" x="95.410156"/>
      </g>
     </g>
    </g>
    <g id="xtick_3">
     <g id="line2d_5">
      <path d="M 198.511125 301.076 
L 198.511125 34.964 
" clip-path="url(#pe2476a6868)" style="fill: none; stroke: #b0b0b0; stroke-width: 0.8; stroke-linecap: square"/>
     </g>
     <g id="line2d_6">
      <g>
       <use xlink:href="#mdbefc35732" x="198.511125" y="301.076" style="stroke: #000000; stroke-width: 0.8"/>
      </g>
     </g>
     <g id="text_3">
      <!-- 0.2 -->
      <g transform="translate(190.559563 315.674437) scale(0.1 -0.1)">
       <defs>
        <path id="DejaVuSans-32" d="M 1228 531 
L 3431 531 
L 3431 0 
L 469 0 
L 469 531 
Q 828 903 1448 1529 
Q 2069 2156 2228 2338 
Q 2531 2678 2651 2914 
Q 2772 3150 2772 3378 
Q 2772 3750 2511 3984 
Q 2250 4219 1831 4219 
Q 1534 4219 1204 4116 
Q 875 4013 500 3803 
L 500 4441 
Q 881 4594 1212 4672 
Q 1544 4750 1819 4750 
Q 2544 4750 2975 4387 
Q 3406 4025 3406 3419 
Q 3406 3131 3298 2873 
Q 3191 2616 2906 2266 
Q 2828 2175 2409 1742 
Q 1991 1309 1228 531 
z
" transform="scale(0.015625)"/>
       </defs>
       <use xlink:href="#DejaVuSans-30"/>
       <use xlink:href="#DejaVuSans-2e" x="63.623047"/>
       <use xlink:href="#DejaVuSans-32" x="95.410156"/>
      </g>
     </g>
    </g>
    <g id="xtick_4">
     <g id="line2d_7">
      <path d="M 269.935125 301.076 
L 269.935125 34.964 
" clip-path="url(#pe2476a6868)" style="fill: none; stroke: #b0b0b0; stroke-width: 0.8; stroke-linecap: square"/>
     </g>
     <g id="line2d_8">
      <g>
       <use xlink:href="#mdbefc35732" x="269.935125" y="301.076" style="stroke: #000000; stroke-width: 0.8"/>
      </g>
     </g>
     <g id="text_4">
      <!-- 0.3 -->
      <g transform="translate(261.983563 315.674437) scale(0.1 -0.1)">
       <defs>
        <path id="DejaVuSans-33" d="M 2597 2516 
Q 3050 2419 3304 2112 
Q 3559 1806 3559 1356 
Q 3559 666 3084 287 
Q 2609 -91 1734 -91 
Q 1441 -91 1130 -33 
Q 819 25 488 141 
L 488 750 
Q 750 597 1062 519 
Q 1375 441 1716 441 
Q 2309 441 2620 675 
Q 2931 909 2931 1356 
Q 2931 1769 2642 2001 
Q 2353 2234 1838 2234 
L 1294 2234 
L 1294 2753 
L 1863 2753 
Q 2328 2753 2575 2939 
Q 2822 3125 2822 3475 
Q 2822 3834 2567 4026 
Q 2313 4219 1838 4219 
Q 1578 4219 1281 4162 
Q 984 4106 628 3988 
L 628 4550 
Q 988 4650 1302 4700 
Q 1616 4750 1894 4750 
Q 2613 4750 3031 4423 
Q 3450 4097 3450 3541 
Q 3450 3153 3228 2886 
Q 3006 2619 2597 2516 
z
" transform="scale(0.015625)"/>
       </defs>
       <use xlink:href="#DejaVuSans-30"/>
       <use xlink:href="#DejaVuSans-2e" x="63.623047"/>
       <use xlink:href="#DejaVuSans-33" x="95.410156"/>
      </g>
     </g>
    </g>
    <g id="xtick_5">
     <g id="line2d_9">
      <path d="M 341.359125 301.076 
L 341.359125 34.964 
" clip-path="url(#pe2476a6868)" style="fill: none; stroke: #b0b0b0; stroke-width: 0.8; stroke-linecap: square"/>
     </g>
     <g id="line2d_10">
      <g>
       <use xlink:href="#mdbefc35732" x="341.359125" y="301.076" style="stroke: #000000; stroke-width: 0.8"/>
      </g>
     </g>
     <g id="text_5">
      <!-- 0.4 -->
      <g transform="translate(333.407563 315.674437) scale(0.1 -0.1)">
       <defs>
        <path id="DejaVuSans-34" d="M 2419 4116 
L 825 1625 
L 2419 1625 
L 2419 4116 
z
M 2253 4666 
L 3047 4666 
L 3047 1625 
L 3713 1625 
L 3713 1100 
L 3047 1100 
L 3047 0 
L 2419 0 
L 2419 1100 
L 313 1100 
L 313 1709 
L 2253 4666 
z
" transform="scale(0.015625)"/>
       </defs>
       <use xlink:href="#DejaVuSans-30"/>
       <use xlink:href="#DejaVuSans-2e" x="63.623047"/>
       <use xlink:href="#DejaVuSans-34" x="95.410156"/>
      </g>
     </g>
    </g>
    <g id="xtick_6">
     <g id="line2d_11">
      <path d="M 412.783125 301.076 
L 412.783125 34.964 
" clip-path="url(#pe2476a6868)" style="fill: none; stroke: #b0b0b0; stroke-width: 0.8; stroke-linecap: square"/>
     </g>
     <g id="line2d_12">
      <g>
       <use xlink:href="#mdbefc35732" x="412.783125" y="301.076" style="stroke: #000000; stroke-width: 0.8"/>
      </g>
     </g>
     <g id="text_6">
      <!-- 0.5 -->
      <g transform="translate(404.831563 315.674437) scale(0.1 -0.1)">
       <defs>
        <path id="DejaVuSans-35" d="M 691 4666 
L 3169 4666 
L 3169 4134 
L 1269 4134 
L 1269 2991 
Q 1406 3038 1543 3061 
Q 1681 3084 1819 3084 
Q 2600 3084 3056 2656 
Q 3513 2228 3513 1497 
Q 3513 744 3044 326 
Q 2575 -91 1722 -91 
Q 1428 -91 1123 -41 
Q 819 9 494 109 
L 494 744 
Q 775 591 1075 516 
Q 1375 441 1709 441 
Q 2250 441 2565 725 
Q 2881 1009 2881 1497 
Q 2881 1984 2565 2268 
Q 2250 2553 1709 2553 
Q 1456 2553 1204 2497 
Q 953 2441 691 2322 
L 691 4666 
z
" transform="scale(0.015625)"/>
       </defs>
       <use xlink:href="#DejaVuSans-30"/>
       <use xlink:href="#DejaVuSans-2e" x="63.623047"/>
       <use xlink:href="#DejaVuSans-35" x="95.410156"/>
      </g>
     </g>
    </g>
    <g id="text_7">
     <!-- Cumulative EC Biomass Flux ($\frac{g_1}{g_T \cdot hr}$) -->
     <g transform="translate(111.793125 335.474125) scale(0.14 -0.14)">
      <defs>
       <path id="DejaVuSans-43" d="M 4122 4306 
L 4122 3641 
Q 3803 3938 3442 4084 
Q 3081 4231 2675 4231 
Q 1875 4231 1450 3742 
Q 1025 3253 1025 2328 
Q 1025 1406 1450 917 
Q 1875 428 2675 428 
Q 3081 428 3442 575 
Q 3803 722 4122 1019 
L 4122 359 
Q 3791 134 3420 21 
Q 3050 -91 2638 -91 
Q 1578 -91 968 557 
Q 359 1206 359 2328 
Q 359 3453 968 4101 
Q 1578 4750 2638 4750 
Q 3056 4750 3426 4639 
Q 3797 4528 4122 4306 
z
" transform="scale(0.015625)"/>
       <path id="DejaVuSans-75" d="M 544 1381 
L 544 3500 
L 1119 3500 
L 1119 1403 
Q 1119 906 1312 657 
Q 1506 409 1894 409 
Q 2359 409 2629 706 
Q 2900 1003 2900 1516 
L 2900 3500 
L 3475 3500 
L 3475 0 
L 2900 0 
L 2900 538 
Q 2691 219 2414 64 
Q 2138 -91 1772 -91 
Q 1169 -91 856 284 
Q 544 659 544 1381 
z
M 1991 3584 
L 1991 3584 
z
" transform="scale(0.015625)"/>
       <path id="DejaVuSans-6d" d="M 3328 2828 
Q 3544 3216 3844 3400 
Q 4144 3584 4550 3584 
Q 5097 3584 5394 3201 
Q 5691 2819 5691 2113 
L 5691 0 
L 5113 0 
L 5113 2094 
Q 5113 2597 4934 2840 
Q 4756 3084 4391 3084 
Q 3944 3084 3684 2787 
Q 3425 2491 3425 1978 
L 3425 0 
L 2847 0 
L 2847 2094 
Q 2847 2600 2669 2842 
Q 2491 3084 2119 3084 
Q 1678 3084 1418 2786 
Q 1159 2488 1159 1978 
L 1159 0 
L 581 0 
L 581 3500 
L 1159 3500 
L 1159 2956 
Q 1356 3278 1631 3431 
Q 1906 3584 2284 3584 
Q 2666 3584 2933 3390 
Q 3200 3197 3328 2828 
z
" transform="scale(0.015625)"/>
       <path id="DejaVuSans-6c" d="M 603 4863 
L 1178 4863 
L 1178 0 
L 603 0 
L 603 4863 
z
" transform="scale(0.015625)"/>
       <path id="DejaVuSans-61" d="M 2194 1759 
Q 1497 1759 1228 1600 
Q 959 1441 959 1056 
Q 959 750 1161 570 
Q 1363 391 1709 391 
Q 2188 391 2477 730 
Q 2766 1069 2766 1631 
L 2766 1759 
L 2194 1759 
z
M 3341 1997 
L 3341 0 
L 2766 0 
L 2766 531 
Q 2569 213 2275 61 
Q 1981 -91 1556 -91 
Q 1019 -91 701 211 
Q 384 513 384 1019 
Q 384 1609 779 1909 
Q 1175 2209 1959 2209 
L 2766 2209 
L 2766 2266 
Q 2766 2663 2505 2880 
Q 2244 3097 1772 3097 
Q 1472 3097 1187 3025 
Q 903 2953 641 2809 
L 641 3341 
Q 956 3463 1253 3523 
Q 1550 3584 1831 3584 
Q 2591 3584 2966 3190 
Q 3341 2797 3341 1997 
z
" transform="scale(0.015625)"/>
       <path id="DejaVuSans-74" d="M 1172 4494 
L 1172 3500 
L 2356 3500 
L 2356 3053 
L 1172 3053 
L 1172 1153 
Q 1172 725 1289 603 
Q 1406 481 1766 481 
L 2356 481 
L 2356 0 
L 1766 0 
Q 1100 0 847 248 
Q 594 497 594 1153 
L 594 3053 
L 172 3053 
L 172 3500 
L 594 3500 
L 594 4494 
L 1172 4494 
z
" transform="scale(0.015625)"/>
       <path id="DejaVuSans-69" d="M 603 3500 
L 1178 3500 
L 1178 0 
L 603 0 
L 603 3500 
z
M 603 4863 
L 1178 4863 
L 1178 4134 
L 603 4134 
L 603 4863 
z
" transform="scale(0.015625)"/>
       <path id="DejaVuSans-76" d="M 191 3500 
L 800 3500 
L 1894 563 
L 2988 3500 
L 3597 3500 
L 2284 0 
L 1503 0 
L 191 3500 
z
" transform="scale(0.015625)"/>
       <path id="DejaVuSans-65" d="M 3597 1894 
L 3597 1613 
L 953 1613 
Q 991 1019 1311 708 
Q 1631 397 2203 397 
Q 2534 397 2845 478 
Q 3156 559 3463 722 
L 3463 178 
Q 3153 47 2828 -22 
Q 2503 -91 2169 -91 
Q 1331 -91 842 396 
Q 353 884 353 1716 
Q 353 2575 817 3079 
Q 1281 3584 2069 3584 
Q 2775 3584 3186 3129 
Q 3597 2675 3597 1894 
z
M 3022 2063 
Q 3016 2534 2758 2815 
Q 2500 3097 2075 3097 
Q 1594 3097 1305 2825 
Q 1016 2553 972 2059 
L 3022 2063 
z
" transform="scale(0.015625)"/>
       <path id="DejaVuSans-20" transform="scale(0.015625)"/>
       <path id="DejaVuSans-45" d="M 628 4666 
L 3578 4666 
L 3578 4134 
L 1259 4134 
L 1259 2753 
L 3481 2753 
L 3481 2222 
L 1259 2222 
L 1259 531 
L 3634 531 
L 3634 0 
L 628 0 
L 628 4666 
z
" transform="scale(0.015625)"/>
       <path id="DejaVuSans-42" d="M 1259 2228 
L 1259 519 
L 2272 519 
Q 2781 519 3026 730 
Q 3272 941 3272 1375 
Q 3272 1813 3026 2020 
Q 2781 2228 2272 2228 
L 1259 2228 
z
M 1259 4147 
L 1259 2741 
L 2194 2741 
Q 2656 2741 2882 2914 
Q 3109 3088 3109 3444 
Q 3109 3797 2882 3972 
Q 2656 4147 2194 4147 
L 1259 4147 
z
M 628 4666 
L 2241 4666 
Q 2963 4666 3353 4366 
Q 3744 4066 3744 3513 
Q 3744 3084 3544 2831 
Q 3344 2578 2956 2516 
Q 3422 2416 3680 2098 
Q 3938 1781 3938 1306 
Q 3938 681 3513 340 
Q 3088 0 2303 0 
L 628 0 
L 628 4666 
z
" transform="scale(0.015625)"/>
       <path id="DejaVuSans-6f" d="M 1959 3097 
Q 1497 3097 1228 2736 
Q 959 2375 959 1747 
Q 959 1119 1226 758 
Q 1494 397 1959 397 
Q 2419 397 2687 759 
Q 2956 1122 2956 1747 
Q 2956 2369 2687 2733 
Q 2419 3097 1959 3097 
z
M 1959 3584 
Q 2709 3584 3137 3096 
Q 3566 2609 3566 1747 
Q 3566 888 3137 398 
Q 2709 -91 1959 -91 
Q 1206 -91 779 398 
Q 353 888 353 1747 
Q 353 2609 779 3096 
Q 1206 3584 1959 3584 
z
" transform="scale(0.015625)"/>
       <path id="DejaVuSans-73" d="M 2834 3397 
L 2834 2853 
Q 2591 2978 2328 3040 
Q 2066 3103 1784 3103 
Q 1356 3103 1142 2972 
Q 928 2841 928 2578 
Q 928 2378 1081 2264 
Q 1234 2150 1697 2047 
L 1894 2003 
Q 2506 1872 2764 1633 
Q 3022 1394 3022 966 
Q 3022 478 2636 193 
Q 2250 -91 1575 -91 
Q 1294 -91 989 -36 
Q 684 19 347 128 
L 347 722 
Q 666 556 975 473 
Q 1284 391 1588 391 
Q 1994 391 2212 530 
Q 2431 669 2431 922 
Q 2431 1156 2273 1281 
Q 2116 1406 1581 1522 
L 1381 1569 
Q 847 1681 609 1914 
Q 372 2147 372 2553 
Q 372 3047 722 3315 
Q 1072 3584 1716 3584 
Q 2034 3584 2315 3537 
Q 2597 3491 2834 3397 
z
" transform="scale(0.015625)"/>
       <path id="DejaVuSans-46" d="M 628 4666 
L 3309 4666 
L 3309 4134 
L 1259 4134 
L 1259 2759 
L 3109 2759 
L 3109 2228 
L 1259 2228 
L 1259 0 
L 628 0 
L 628 4666 
z
" transform="scale(0.015625)"/>
       <path id="DejaVuSans-78" d="M 3513 3500 
L 2247 1797 
L 3578 0 
L 2900 0 
L 1881 1375 
L 863 0 
L 184 0 
L 1544 1831 
L 300 3500 
L 978 3500 
L 1906 2253 
L 2834 3500 
L 3513 3500 
z
" transform="scale(0.015625)"/>
       <path id="DejaVuSans-28" d="M 1984 4856 
Q 1566 4138 1362 3434 
Q 1159 2731 1159 2009 
Q 1159 1288 1364 580 
Q 1569 -128 1984 -844 
L 1484 -844 
Q 1016 -109 783 600 
Q 550 1309 550 2009 
Q 550 2706 781 3412 
Q 1013 4119 1484 4856 
L 1984 4856 
z
" transform="scale(0.015625)"/>
       <path id="DejaVuSans-Oblique-67" d="M 3816 3500 
L 3219 434 
Q 3047 -456 2561 -893 
Q 2075 -1331 1253 -1331 
Q 950 -1331 690 -1286 
Q 431 -1241 206 -1147 
L 313 -588 
Q 525 -725 762 -790 
Q 1000 -856 1269 -856 
Q 1816 -856 2167 -557 
Q 2519 -259 2631 300 
L 2681 563 
Q 2441 288 2122 144 
Q 1803 0 1434 0 
Q 903 0 598 351 
Q 294 703 294 1319 
Q 294 1803 478 2267 
Q 663 2731 997 3091 
Q 1219 3328 1514 3456 
Q 1809 3584 2131 3584 
Q 2484 3584 2746 3420 
Q 3009 3256 3138 2956 
L 3238 3500 
L 3816 3500 
z
M 2950 2216 
Q 2950 2641 2750 2872 
Q 2550 3103 2181 3103 
Q 1953 3103 1747 3012 
Q 1541 2922 1394 2759 
Q 1156 2491 1023 2127 
Q 891 1763 891 1375 
Q 891 944 1092 712 
Q 1294 481 1672 481 
Q 2219 481 2584 976 
Q 2950 1472 2950 2216 
z
" transform="scale(0.015625)"/>
       <path id="DejaVuSans-Oblique-54" d="M 378 4666 
L 4325 4666 
L 4225 4134 
L 2559 4134 
L 1759 0 
L 1125 0 
L 1925 4134 
L 275 4134 
L 378 4666 
z
" transform="scale(0.015625)"/>
       <path id="DejaVuSans-22c5" d="M 684 2619 
L 1344 2619 
L 1344 1825 
L 684 1825 
L 684 2619 
z
" transform="scale(0.015625)"/>
       <path id="DejaVuSans-Oblique-68" d="M 3566 2113 
L 3156 0 
L 2578 0 
L 2988 2091 
Q 3016 2238 3031 2350 
Q 3047 2463 3047 2528 
Q 3047 2791 2881 2937 
Q 2716 3084 2419 3084 
Q 1956 3084 1617 2771 
Q 1278 2459 1178 1941 
L 800 0 
L 225 0 
L 1172 4863 
L 1747 4863 
L 1375 2950 
Q 1594 3244 1934 3414 
Q 2275 3584 2650 3584 
Q 3113 3584 3367 3334 
Q 3622 3084 3622 2631 
Q 3622 2519 3608 2391 
Q 3594 2263 3566 2113 
z
" transform="scale(0.015625)"/>
       <path id="DejaVuSans-Oblique-72" d="M 2853 2969 
Q 2766 3016 2653 3041 
Q 2541 3066 2413 3066 
Q 1953 3066 1609 2717 
Q 1266 2369 1153 1784 
L 800 0 
L 225 0 
L 909 3500 
L 1484 3500 
L 1375 2956 
Q 1603 3259 1920 3421 
Q 2238 3584 2597 3584 
Q 2691 3584 2781 3573 
Q 2872 3563 2963 3538 
L 2853 2969 
z
" transform="scale(0.015625)"/>
       <path id="DejaVuSans-29" d="M 513 4856 
L 1013 4856 
Q 1481 4119 1714 3412 
Q 1947 2706 1947 2009 
Q 1947 1309 1714 600 
Q 1481 -109 1013 -844 
L 513 -844 
Q 928 -128 1133 580 
Q 1338 1288 1338 2009 
Q 1338 2731 1133 3434 
Q 928 4138 513 4856 
z
" transform="scale(0.015625)"/>
      </defs>
      <use xlink:href="#DejaVuSans-43" transform="translate(0 0.445312)"/>
      <use xlink:href="#DejaVuSans-75" transform="translate(69.824219 0.445312)"/>
      <use xlink:href="#DejaVuSans-6d" transform="translate(133.203125 0.445312)"/>
      <use xlink:href="#DejaVuSans-75" transform="translate(230.615234 0.445312)"/>
      <use xlink:href="#DejaVuSans-6c" transform="translate(293.994141 0.445312)"/>
      <use xlink:href="#DejaVuSans-61" transform="translate(321.777344 0.445312)"/>
      <use xlink:href="#DejaVuSans-74" transform="translate(383.056641 0.445312)"/>
      <use xlink:href="#DejaVuSans-69" transform="translate(422.265625 0.445312)"/>
      <use xlink:href="#DejaVuSans-76" transform="translate(450.048828 0.445312)"/>
      <use xlink:href="#DejaVuSans-65" transform="translate(509.228516 0.445312)"/>
      <use xlink:href="#DejaVuSans-20" transform="translate(570.751953 0.445312)"/>
      <use xlink:href="#DejaVuSans-45" transform="translate(602.539062 0.445312)"/>
      <use xlink:href="#DejaVuSans-43" transform="translate(665.722656 0.445312)"/>
      <use xlink:href="#DejaVuSans-20" transform="translate(735.546875 0.445312)"/>
      <use xlink:href="#DejaVuSans-42" transform="translate(767.333984 0.445312)"/>
      <use xlink:href="#DejaVuSans-69" transform="translate(835.9375 0.445312)"/>
      <use xlink:href="#DejaVuSans-6f" transform="translate(863.720703 0.445312)"/>
      <use xlink:href="#DejaVuSans-6d" transform="translate(924.902344 0.445312)"/>
      <use xlink:href="#DejaVuSans-61" transform="translate(1022.314453 0.445312)"/>
      <use xlink:href="#DejaVuSans-73" transform="translate(1083.59375 0.445312)"/>
      <use xlink:href="#DejaVuSans-73" transform="translate(1135.693359 0.445312)"/>
      <use xlink:href="#DejaVuSans-20" transform="translate(1187.792969 0.445312)"/>
      <use xlink:href="#DejaVuSans-46" transform="translate(1219.580078 0.445312)"/>
      <use xlink:href="#DejaVuSans-6c" transform="translate(1277.099609 0.445312)"/>
      <use xlink:href="#DejaVuSans-75" transform="translate(1304.882812 0.445312)"/>
      <use xlink:href="#DejaVuSans-78" transform="translate(1368.261719 0.445312)"/>
      <use xlink:href="#DejaVuSans-20" transform="translate(1427.441406 0.445312)"/>
      <use xlink:href="#DejaVuSans-28" transform="translate(1459.228516 0.445312)"/>
      <use xlink:href="#DejaVuSans-Oblique-67" transform="translate(1559.242188 58.8) scale(0.7)"/>
      <use xlink:href="#DejaVuSans-31" transform="translate(1603.675781 47.315625) scale(0.49)"/>
      <use xlink:href="#DejaVuSans-Oblique-67" transform="translate(1498.242188 -40.196875) scale(0.7)"/>
      <use xlink:href="#DejaVuSans-Oblique-54" transform="translate(1542.675781 -51.68125) scale(0.49)"/>
      <use xlink:href="#DejaVuSans-22c5" transform="translate(1588.158691 -40.196875) scale(0.7)"/>
      <use xlink:href="#DejaVuSans-Oblique-68" transform="translate(1624.047363 -40.196875) scale(0.7)"/>
      <use xlink:href="#DejaVuSans-Oblique-72" transform="translate(1668.412598 -40.196875) scale(0.7)"/>
      <use xlink:href="#DejaVuSans-29" transform="translate(1709.691895 0.445312)"/>
      <path d="M 1498.242188 19.242188 
L 1498.242188 25.492188 
L 1697.191895 25.492188 
L 1697.191895 19.242188 
L 1498.242188 19.242188 
z
"/>
     </g>
    </g>
   </g>
   <g id="matplotlib.axis_2">
    <g id="ytick_1">
     <g id="line2d_13">
      <path d="M 55.663125 301.076 
L 412.783125 301.076 
" clip-path="url(#pe2476a6868)" style="fill: none; stroke: #b0b0b0; stroke-width: 0.8; stroke-linecap: square"/>
     </g>
     <g id="line2d_14">
      <defs>
       <path id="mb80d95b735" d="M 0 0 
L -3.5 0 
" style="stroke: #000000; stroke-width: 0.8"/>
      </defs>
      <g>
       <use xlink:href="#mb80d95b735" x="55.663125" y="301.076" style="stroke: #000000; stroke-width: 0.8"/>
      </g>
     </g>
     <g id="text_8">
      <!-- 0.0 -->
      <g transform="translate(32.76 304.875219) scale(0.1 -0.1)">
       <use xlink:href="#DejaVuSans-30"/>
       <use xlink:href="#DejaVuSans-2e" x="63.623047"/>
       <use xlink:href="#DejaVuSans-30" x="95.410156"/>
      </g>
     </g>
    </g>
    <g id="ytick_2">
     <g id="line2d_15">
      <path d="M 55.663125 247.8536 
L 412.783125 247.8536 
" clip-path="url(#pe2476a6868)" style="fill: none; stroke: #b0b0b0; stroke-width: 0.8; stroke-linecap: square"/>
     </g>
     <g id="line2d_16">
      <g>
       <use xlink:href="#mb80d95b735" x="55.663125" y="247.8536" style="stroke: #000000; stroke-width: 0.8"/>
      </g>
     </g>
     <g id="text_9">
      <!-- 0.1 -->
      <g transform="translate(32.76 251.652819) scale(0.1 -0.1)">
       <use xlink:href="#DejaVuSans-30"/>
       <use xlink:href="#DejaVuSans-2e" x="63.623047"/>
       <use xlink:href="#DejaVuSans-31" x="95.410156"/>
      </g>
     </g>
    </g>
    <g id="ytick_3">
     <g id="line2d_17">
      <path d="M 55.663125 194.6312 
L 412.783125 194.6312 
" clip-path="url(#pe2476a6868)" style="fill: none; stroke: #b0b0b0; stroke-width: 0.8; stroke-linecap: square"/>
     </g>
     <g id="line2d_18">
      <g>
       <use xlink:href="#mb80d95b735" x="55.663125" y="194.6312" style="stroke: #000000; stroke-width: 0.8"/>
      </g>
     </g>
     <g id="text_10">
      <!-- 0.2 -->
      <g transform="translate(32.76 198.430419) scale(0.1 -0.1)">
       <use xlink:href="#DejaVuSans-30"/>
       <use xlink:href="#DejaVuSans-2e" x="63.623047"/>
       <use xlink:href="#DejaVuSans-32" x="95.410156"/>
      </g>
     </g>
    </g>
    <g id="ytick_4">
     <g id="line2d_19">
      <path d="M 55.663125 141.4088 
L 412.783125 141.4088 
" clip-path="url(#pe2476a6868)" style="fill: none; stroke: #b0b0b0; stroke-width: 0.8; stroke-linecap: square"/>
     </g>
     <g id="line2d_20">
      <g>
       <use xlink:href="#mb80d95b735" x="55.663125" y="141.4088" style="stroke: #000000; stroke-width: 0.8"/>
      </g>
     </g>
     <g id="text_11">
      <!-- 0.3 -->
      <g transform="translate(32.76 145.208019) scale(0.1 -0.1)">
       <use xlink:href="#DejaVuSans-30"/>
       <use xlink:href="#DejaVuSans-2e" x="63.623047"/>
       <use xlink:href="#DejaVuSans-33" x="95.410156"/>
      </g>
     </g>
    </g>
    <g id="ytick_5">
     <g id="line2d_21">
      <path d="M 55.663125 88.1864 
L 412.783125 88.1864 
" clip-path="url(#pe2476a6868)" style="fill: none; stroke: #b0b0b0; stroke-width: 0.8; stroke-linecap: square"/>
     </g>
     <g id="line2d_22">
      <g>
       <use xlink:href="#mb80d95b735" x="55.663125" y="88.1864" style="stroke: #000000; stroke-width: 0.8"/>
      </g>
     </g>
     <g id="text_12">
      <!-- 0.4 -->
      <g transform="translate(32.76 91.985619) scale(0.1 -0.1)">
       <use xlink:href="#DejaVuSans-30"/>
       <use xlink:href="#DejaVuSans-2e" x="63.623047"/>
       <use xlink:href="#DejaVuSans-34" x="95.410156"/>
      </g>
     </g>
    </g>
    <g id="ytick_6">
     <g id="line2d_23">
      <path d="M 55.663125 34.964 
L 412.783125 34.964 
" clip-path="url(#pe2476a6868)" style="fill: none; stroke: #b0b0b0; stroke-width: 0.8; stroke-linecap: square"/>
     </g>
     <g id="line2d_24">
      <g>
       <use xlink:href="#mb80d95b735" x="55.663125" y="34.964" style="stroke: #000000; stroke-width: 0.8"/>
      </g>
     </g>
     <g id="text_13">
      <!-- 0.5 -->
      <g transform="translate(32.76 38.763219) scale(0.1 -0.1)">
       <use xlink:href="#DejaVuSans-30"/>
       <use xlink:href="#DejaVuSans-2e" x="63.623047"/>
       <use xlink:href="#DejaVuSans-35" x="95.410156"/>
      </g>
     </g>
    </g>
    <g id="text_14">
     <!-- Cumulative BT Biomass Flux ($\frac{g_2}{g_T \cdot hr}$) -->
     <g transform="translate(20.92 290.24) rotate(-90) scale(0.14 -0.14)">
      <defs>
       <path id="DejaVuSans-54" d="M -19 4666 
L 3928 4666 
L 3928 4134 
L 2272 4134 
L 2272 0 
L 1638 0 
L 1638 4134 
L -19 4134 
L -19 4666 
z
" transform="scale(0.015625)"/>
      </defs>
      <use xlink:href="#DejaVuSans-43" transform="translate(0 0.445312)"/>
      <use xlink:href="#DejaVuSans-75" transform="translate(69.824219 0.445312)"/>
      <use xlink:href="#DejaVuSans-6d" transform="translate(133.203125 0.445312)"/>
      <use xlink:href="#DejaVuSans-75" transform="translate(230.615234 0.445312)"/>
      <use xlink:href="#DejaVuSans-6c" transform="translate(293.994141 0.445312)"/>
      <use xlink:href="#DejaVuSans-61" transform="translate(321.777344 0.445312)"/>
      <use xlink:href="#DejaVuSans-74" transform="translate(383.056641 0.445312)"/>
      <use xlink:href="#DejaVuSans-69" transform="translate(422.265625 0.445312)"/>
      <use xlink:href="#DejaVuSans-76" transform="translate(450.048828 0.445312)"/>
      <use xlink:href="#DejaVuSans-65" transform="translate(509.228516 0.445312)"/>
      <use xlink:href="#DejaVuSans-20" transform="translate(570.751953 0.445312)"/>
      <use xlink:href="#DejaVuSans-42" transform="translate(602.539062 0.445312)"/>
      <use xlink:href="#DejaVuSans-54" transform="translate(671.142578 0.445312)"/>
      <use xlink:href="#DejaVuSans-20" transform="translate(732.226562 0.445312)"/>
      <use xlink:href="#DejaVuSans-42" transform="translate(764.013672 0.445312)"/>
      <use xlink:href="#DejaVuSans-69" transform="translate(832.617188 0.445312)"/>
      <use xlink:href="#DejaVuSans-6f" transform="translate(860.400391 0.445312)"/>
      <use xlink:href="#DejaVuSans-6d" transform="translate(921.582031 0.445312)"/>
      <use xlink:href="#DejaVuSans-61" transform="translate(1018.994141 0.445312)"/>
      <use xlink:href="#DejaVuSans-73" transform="translate(1080.273438 0.445312)"/>
      <use xlink:href="#DejaVuSans-73" transform="translate(1132.373047 0.445312)"/>
      <use xlink:href="#DejaVuSans-20" transform="translate(1184.472656 0.445312)"/>
      <use xlink:href="#DejaVuSans-46" transform="translate(1216.259766 0.445312)"/>
      <use xlink:href="#DejaVuSans-6c" transform="translate(1273.779297 0.445312)"/>
      <use xlink:href="#DejaVuSans-75" transform="translate(1301.5625 0.445312)"/>
      <use xlink:href="#DejaVuSans-78" transform="translate(1364.941406 0.445312)"/>
      <use xlink:href="#DejaVuSans-20" transform="translate(1424.121094 0.445312)"/>
      <use xlink:href="#DejaVuSans-28" transform="translate(1455.908203 0.445312)"/>
      <use xlink:href="#DejaVuSans-Oblique-67" transform="translate(1555.921875 58.8) scale(0.7)"/>
      <use xlink:href="#DejaVuSans-32" transform="translate(1600.355469 47.315625) scale(0.49)"/>
      <use xlink:href="#DejaVuSans-Oblique-67" transform="translate(1494.921875 -40.196875) scale(0.7)"/>
      <use xlink:href="#DejaVuSans-Oblique-54" transform="translate(1539.355469 -51.68125) scale(0.49)"/>
      <use xlink:href="#DejaVuSans-22c5" transform="translate(1584.838379 -40.196875) scale(0.7)"/>
      <use xlink:href="#DejaVuSans-Oblique-68" transform="translate(1620.727051 -40.196875) scale(0.7)"/>
      <use xlink:href="#DejaVuSans-Oblique-72" transform="translate(1665.092285 -40.196875) scale(0.7)"/>
      <use xlink:href="#DejaVuSans-29" transform="translate(1706.371582 0.445312)"/>
      <path d="M 1494.921875 19.242188 
L 1494.921875 25.492188 
L 1693.871582 25.492188 
L 1693.871582 19.242188 
L 1494.921875 19.242188 
z
"/>
     </g>
    </g>
   </g>
   <g id="PathCollection_1">
    <path d="M 159.936234 202.386638 
C 160.876355 202.386638 161.778097 202.013125 162.442862 201.348359 
C 163.107628 200.683593 163.481142 199.781851 163.481142 198.841731 
C 163.481142 197.90161 163.107628 196.999868 162.442862 196.335103 
C 161.778097 195.670337 160.876355 195.296823 159.936234 195.296823 
C 158.996114 195.296823 158.094371 195.670337 157.429606 196.335103 
C 156.76484 196.999868 156.391326 197.90161 156.391326 198.841731 
C 156.391326 199.781851 156.76484 200.683593 157.429606 201.348359 
C 158.094371 202.013125 158.996114 202.386638 159.936234 202.386638 
z
" clip-path="url(#pe2476a6868)" style="fill: #0000ff; fill-opacity: 0.25; stroke: #0000ff; stroke-opacity: 0.25"/>
    <path d="M 168.463195 166.166979 
C 170.225921 166.166979 171.916688 165.46664 173.163123 164.220205 
C 174.409559 162.973769 175.109897 161.283003 175.109897 159.520277 
C 175.109897 157.757551 174.409559 156.066784 173.163123 154.820349 
C 171.916688 153.573913 170.225921 152.873575 168.463195 152.873575 
C 166.70047 152.873575 165.009703 153.573913 163.763267 154.820349 
C 162.516832 156.066784 161.816494 157.757551 161.816494 159.520277 
C 161.816494 161.283003 162.516832 162.973769 163.763267 164.220205 
C 165.009703 165.46664 166.70047 166.166979 168.463195 166.166979 
z
" clip-path="url(#pe2476a6868)" style="fill: #0000ff; fill-opacity: 0.25; stroke: #0000ff; stroke-opacity: 0.25"/>
    <path d="M 176.595431 169.268773 
C 179.180762 169.268773 181.660553 168.24161 183.488659 166.413505 
C 185.316764 164.585399 186.343927 162.105608 186.343927 159.520277 
C 186.343927 156.934946 185.316764 154.455155 183.488659 152.627049 
C 181.660553 150.798944 179.180762 149.771781 176.595431 149.771781 
C 174.0101 149.771781 171.530309 150.798944 169.702203 152.627049 
C 167.874098 154.455155 166.846935 156.934946 166.846935 159.520277 
C 166.846935 162.105608 167.874098 164.585399 169.702203 166.413505 
C 171.530309 168.24161 174.0101 169.268773 176.595431 169.268773 
z
" clip-path="url(#pe2476a6868)" style="fill: #0000ff; fill-opacity: 0.25; stroke: #0000ff; stroke-opacity: 0.25"/>
    <path d="M 176.595431 166.986988 
C 180.003368 166.986988 183.272183 165.633001 185.681959 163.223226 
C 188.091734 160.81345 189.445721 157.544635 189.445721 154.136698 
C 189.445721 150.728761 188.091734 147.459946 185.681959 145.050171 
C 183.272183 142.640395 180.003368 141.286408 176.595431 141.286408 
C 173.187494 141.286408 169.918679 142.640395 167.508904 145.050171 
C 165.099128 147.459946 163.745141 150.728761 163.745141 154.136698 
C 163.745141 157.544635 165.099128 160.81345 167.508904 163.223226 
C 169.918679 165.633001 173.187494 166.986988 176.595431 166.986988 
z
" clip-path="url(#pe2476a6868)" style="fill: #0000ff; fill-opacity: 0.25; stroke: #0000ff; stroke-opacity: 0.25"/>
    <path d="M 176.595431 170.088783 
C 180.825973 170.088783 184.883813 168.40797 187.875258 165.416525 
C 190.866703 162.42508 192.547516 158.36724 192.547516 154.136698 
C 192.547516 149.906156 190.866703 145.848316 187.875258 142.856871 
C 184.883813 139.865426 180.825973 138.184613 176.595431 138.184613 
C 172.364889 138.184613 168.307049 139.865426 165.315604 142.856871 
C 162.324159 145.848316 160.643346 149.906156 160.643346 154.136698 
C 160.643346 158.36724 162.324159 162.42508 165.315604 165.416525 
C 168.307049 168.40797 172.364889 170.088783 176.595431 170.088783 
z
" clip-path="url(#pe2476a6868)" style="fill: #0000ff; fill-opacity: 0.25; stroke: #0000ff; stroke-opacity: 0.25"/>
   </g>
   <g id="patch_3">
    <path d="M 55.663125 301.076 
L 55.663125 34.964 
" style="fill: none; stroke: #000000; stroke-width: 0.8; stroke-linejoin: miter; stroke-linecap: square"/>
   </g>
   <g id="patch_4">
    <path d="M 412.783125 301.076 
L 412.783125 34.964 
" style="fill: none; stroke: #000000; stroke-width: 0.8; stroke-linejoin: miter; stroke-linecap: square"/>
   </g>
   <g id="patch_5">
    <path d="M 55.663125 301.076 
L 412.783125 301.076 
" style="fill: none; stroke: #000000; stroke-width: 0.8; stroke-linejoin: miter; stroke-linecap: square"/>
   </g>
   <g id="patch_6">
    <path d="M 55.663125 34.964 
L 412.783125 34.964 
" style="fill: none; stroke: #000000; stroke-width: 0.8; stroke-linejoin: miter; stroke-linecap: square"/>
   </g>
   <g id="PathCollection_2">
    <defs>
     <path id="m2b8ddcf6f5" d="M -1.666667 5 
L 1.666667 5 
L 1.666667 1.666667 
L 5 1.666667 
L 5 -1.666667 
L 1.666667 -1.666667 
L 1.666667 -5 
L -1.666667 -5 
L -1.666667 -1.666667 
L -5 -1.666667 
L -5 1.666667 
L -1.666667 1.666667 
z
" style="stroke: #ff0000"/>
    </defs>
    <g clip-path="url(#pe2476a6868)">
     <use xlink:href="#m2b8ddcf6f5" x="287.064904" y="65.877228" style="fill: #ff0000; stroke: #ff0000"/>
    </g>
   </g>
   <g id="legend_1">
    <g id="PathCollection_3">
     <defs>
      <path id="m420bbc7b17" d="M 0 11.554985 
C 3.064418 11.554985 6.003738 10.337479 8.170609 8.170609 
C 10.337479 6.003738 11.554985 3.064418 11.554985 0 
C 11.554985 -3.064418 10.337479 -6.003738 8.170609 -8.170609 
C 6.003738 -10.337479 3.064418 -11.554985 0 -11.554985 
C -3.064418 -11.554985 -6.003738 -10.337479 -8.170609 -8.170609 
C -10.337479 -6.003738 -11.554985 -3.064418 -11.554985 0 
C -11.554985 3.064418 -10.337479 6.003738 -8.170609 8.170609 
C -6.003738 10.337479 -3.064418 11.554985 0 11.554985 
z
" style="stroke: #0000ff; stroke-opacity: 0.25"/>
     </defs>
     <g>
      <use xlink:href="#m420bbc7b17" x="139.522578" y="17.070781" style="fill: #0000ff; fill-opacity: 0.25; stroke: #0000ff; stroke-opacity: 0.25"/>
     </g>
    </g>
    <g id="text_15">
     <!-- giFBA Result -->
     <g transform="translate(159.322578 19.958281) scale(0.11 -0.11)">
      <defs>
       <path id="DejaVuSans-67" d="M 2906 1791 
Q 2906 2416 2648 2759 
Q 2391 3103 1925 3103 
Q 1463 3103 1205 2759 
Q 947 2416 947 1791 
Q 947 1169 1205 825 
Q 1463 481 1925 481 
Q 2391 481 2648 825 
Q 2906 1169 2906 1791 
z
M 3481 434 
Q 3481 -459 3084 -895 
Q 2688 -1331 1869 -1331 
Q 1566 -1331 1297 -1286 
Q 1028 -1241 775 -1147 
L 775 -588 
Q 1028 -725 1275 -790 
Q 1522 -856 1778 -856 
Q 2344 -856 2625 -561 
Q 2906 -266 2906 331 
L 2906 616 
Q 2728 306 2450 153 
Q 2172 0 1784 0 
Q 1141 0 747 490 
Q 353 981 353 1791 
Q 353 2603 747 3093 
Q 1141 3584 1784 3584 
Q 2172 3584 2450 3431 
Q 2728 3278 2906 2969 
L 2906 3500 
L 3481 3500 
L 3481 434 
z
" transform="scale(0.015625)"/>
       <path id="DejaVuSans-41" d="M 2188 4044 
L 1331 1722 
L 3047 1722 
L 2188 4044 
z
M 1831 4666 
L 2547 4666 
L 4325 0 
L 3669 0 
L 3244 1197 
L 1141 1197 
L 716 0 
L 50 0 
L 1831 4666 
z
" transform="scale(0.015625)"/>
       <path id="DejaVuSans-52" d="M 2841 2188 
Q 3044 2119 3236 1894 
Q 3428 1669 3622 1275 
L 4263 0 
L 3584 0 
L 2988 1197 
Q 2756 1666 2539 1819 
Q 2322 1972 1947 1972 
L 1259 1972 
L 1259 0 
L 628 0 
L 628 4666 
L 2053 4666 
Q 2853 4666 3247 4331 
Q 3641 3997 3641 3322 
Q 3641 2881 3436 2590 
Q 3231 2300 2841 2188 
z
M 1259 4147 
L 1259 2491 
L 2053 2491 
Q 2509 2491 2742 2702 
Q 2975 2913 2975 3322 
Q 2975 3731 2742 3939 
Q 2509 4147 2053 4147 
L 1259 4147 
z
" transform="scale(0.015625)"/>
      </defs>
      <use xlink:href="#DejaVuSans-67"/>
      <use xlink:href="#DejaVuSans-69" x="63.476562"/>
      <use xlink:href="#DejaVuSans-46" x="91.259766"/>
      <use xlink:href="#DejaVuSans-42" x="148.779297"/>
      <use xlink:href="#DejaVuSans-41" x="217.382812"/>
      <use xlink:href="#DejaVuSans-20" x="285.791016"/>
      <use xlink:href="#DejaVuSans-52" x="317.578125"/>
      <use xlink:href="#DejaVuSans-65" x="382.560547"/>
      <use xlink:href="#DejaVuSans-73" x="444.083984"/>
      <use xlink:href="#DejaVuSans-75" x="496.183594"/>
      <use xlink:href="#DejaVuSans-6c" x="559.5625"/>
      <use xlink:href="#DejaVuSans-74" x="587.345703"/>
     </g>
    </g>
    <g id="PathCollection_4">
     <g>
      <use xlink:href="#m2b8ddcf6f5" x="261.242734" y="17.070781" style="fill: #ff0000; stroke: #ff0000"/>
     </g>
    </g>
    <g id="text_16">
     <!-- FBA Result -->
     <g transform="translate(281.042734 19.958281) scale(0.11 -0.11)">
      <use xlink:href="#DejaVuSans-46"/>
      <use xlink:href="#DejaVuSans-42" x="57.519531"/>
      <use xlink:href="#DejaVuSans-41" x="126.123047"/>
      <use xlink:href="#DejaVuSans-20" x="194.53125"/>
      <use xlink:href="#DejaVuSans-52" x="226.318359"/>
      <use xlink:href="#DejaVuSans-65" x="291.300781"/>
      <use xlink:href="#DejaVuSans-73" x="352.824219"/>
      <use xlink:href="#DejaVuSans-75" x="404.923828"/>
      <use xlink:href="#DejaVuSans-6c" x="468.302734"/>
      <use xlink:href="#DejaVuSans-74" x="496.085938"/>
     </g>
    </g>
   </g>
  </g>
 </g>
 <defs>
  <clipPath id="pe2476a6868">
   <rect x="55.663125" y="34.964" width="357.12" height="266.112"/>
  </clipPath>
 </defs>
</svg>
